<svg width="16" height="16" viewBox="0 0 16 16" fill="none" xmlns="http://www.w3.org/2000/svg">
<path d="M4.64597 7.64628L9.64597 2.64628C9.69243 2.59982 9.74758 2.56297 9.80827 2.53783C9.86897 2.51269 9.93402 2.49975 9.99972 2.49975C10.0654 2.49975 10.1305 2.51269 10.1912 2.53783C10.2519 2.56297 10.307 2.59982 10.3535 2.64628C10.3999 2.69273 10.4368 2.74788 10.4619 2.80858C10.4871 2.86928 10.5 2.93433 10.5 3.00003C10.5 3.06572 10.4871 3.13078 10.4619 3.19147C10.4368 3.25217 10.3999 3.30732 10.3535 3.35378L5.7066 8.00003L10.3535 12.6463C10.4473 12.7401 10.5 12.8673 10.5 13C10.5 13.1327 10.4473 13.26 10.3535 13.3538C10.2597 13.4476 10.1324 13.5003 9.99972 13.5003C9.86704 13.5003 9.73979 13.4476 9.64597 13.3538L4.64597 8.35378C4.59948 8.30734 4.5626 8.2522 4.53744 8.1915C4.51228 8.1308 4.49933 8.06573 4.49933 8.00003C4.49933 7.93432 4.51228 7.86926 4.53744 7.80856C4.5626 7.74786 4.59948 7.69271 4.64597 7.64628Z" fill="black"/>
</svg>
