<svg width="22" height="18" viewBox="0 0 22 18" fill="none" xmlns="http://www.w3.org/2000/svg">
<path d="M21.4294 3.08396L19.1794 0.875211C18.8983 0.594978 18.5175 0.437622 18.1205 0.437622C17.7236 0.437622 17.3428 0.594978 17.0616 0.875211L8.37195 9.45802L4.93226 6.12052C4.65052 5.8412 4.26959 5.68486 3.87286 5.68574C3.47612 5.68662 3.09589 5.84464 2.81539 6.12521L0.565386 8.37521C0.28458 8.65645 0.126862 9.03763 0.126862 9.43505C0.126862 9.83248 0.28458 10.2137 0.565386 10.4949L7.27976 17.2449C7.41905 17.3842 7.58443 17.4947 7.76644 17.5701C7.94845 17.6455 8.14353 17.6844 8.34054 17.6844C8.53755 17.6844 8.73264 17.6455 8.91465 17.5701C9.09666 17.4947 9.26203 17.3842 9.40132 17.2449L21.4341 5.20927C21.5737 5.0696 21.6843 4.90375 21.7597 4.72123C21.835 4.5387 21.8736 4.3431 21.8731 4.14564C21.8727 3.94818 21.8333 3.75276 21.7571 3.57057C21.681 3.38838 21.5696 3.22301 21.4294 3.08396ZM8.33632 16.1865L1.62195 9.43646L3.87195 7.18646C3.87468 7.18872 3.87719 7.19123 3.87945 7.19396L7.84976 11.0461C7.98992 11.1833 8.1782 11.2601 8.37429 11.2601C8.57038 11.2601 8.75867 11.1833 8.89882 11.0461L18.1276 1.93646L20.3719 4.14896L8.33632 16.1865Z" fill="white"/>
</svg>
