<svg width="34" height="34" viewBox="0 0 34 34" fill="none" xmlns="http://www.w3.org/2000/svg">
<path d="M16.6947 3.13037C14.0119 3.13037 11.3894 3.92591 9.15872 5.4164C6.92805 6.90688 5.18946 9.02536 4.1628 11.5039C3.13613 13.9825 2.86751 16.7099 3.3909 19.3411C3.91429 21.9724 5.20618 24.3894 7.10321 26.2864C9.00023 28.1834 11.4172 29.4753 14.0484 29.9987C16.6797 30.5221 19.4071 30.2534 21.8856 29.2268C24.3642 28.2001 26.4827 26.4615 27.9732 24.2309C29.4637 22.0002 30.2592 19.3776 30.2592 16.6948C30.2554 13.0985 28.8251 9.65052 26.2821 7.10751C23.7391 4.5645 20.2911 3.13417 16.6947 3.13037ZM17.7382 28.1242V19.8251H20.8684C21.1452 19.8251 21.4106 19.7152 21.6062 19.5195C21.8019 19.3238 21.9118 19.0584 21.9118 18.7817C21.9118 18.505 21.8019 18.2396 21.6062 18.0439C21.4106 17.8482 21.1452 17.7383 20.8684 17.7383H17.7382V14.608C17.7382 14.0545 17.958 13.5237 18.3494 13.1324C18.7407 12.741 19.2715 12.5212 19.825 12.5212H21.9118C22.1886 12.5212 22.454 12.4112 22.6497 12.2155C22.8453 12.0199 22.9553 11.7545 22.9553 11.4777C22.9553 11.201 22.8453 10.9356 22.6497 10.7399C22.454 10.5443 22.1886 10.4343 21.9118 10.4343H19.825C18.7181 10.4343 17.6565 10.874 16.8738 11.6568C16.091 12.4395 15.6513 13.5011 15.6513 14.608V17.7383H12.5211C12.2443 17.7383 11.9789 17.8482 11.7832 18.0439C11.5876 18.2396 11.4776 18.505 11.4776 18.7817C11.4776 19.0584 11.5876 19.3238 11.7832 19.5195C11.9789 19.7152 12.2443 19.8251 12.5211 19.8251H15.6513V28.1242C12.7099 27.8557 9.98523 26.4636 8.04404 24.2374C6.10286 22.0113 5.0946 19.1224 5.22899 16.1719C5.36339 13.2213 6.63009 10.4361 8.76562 8.39561C10.9011 6.35514 13.7411 5.21648 16.6947 5.21648C19.6484 5.21648 22.4883 6.35514 24.6239 8.39561C26.7594 10.4361 28.0261 13.2213 28.1605 16.1719C28.2949 19.1224 27.2866 22.0113 25.3454 24.2374C23.4042 26.4636 20.6796 27.8557 17.7382 28.1242Z" fill="white"/>
</svg>
