<svg width="34" height="34" viewBox="0 0 34 34" fill="none" xmlns="http://www.w3.org/2000/svg">
<path d="M16.6949 3.13025C14.0121 3.13025 11.3895 3.92579 9.15883 5.41628C6.92817 6.90676 5.18957 9.02524 4.16291 11.5038C3.13625 13.9824 2.86763 16.7098 3.39101 19.341C3.9144 21.9723 5.20629 24.3892 7.10332 26.2863C9.00035 28.1833 11.4173 29.4752 14.0486 29.9986C16.6798 30.5219 19.4072 30.2533 21.8857 29.2267C24.3643 28.2 26.4828 26.4614 27.9733 24.2307C29.4638 22.0001 30.2593 19.3775 30.2593 16.6947C30.2555 13.0984 28.8252 9.65039 26.2822 7.10739C23.7392 4.56438 20.2912 3.13405 16.6949 3.13025ZM17.7383 28.1241V19.825H20.8685C21.1453 19.825 21.4107 19.7151 21.6063 19.5194C21.802 19.3237 21.912 19.0583 21.912 18.7816C21.912 18.5048 21.802 18.2394 21.6063 18.0438C21.4107 17.8481 21.1453 17.7381 20.8685 17.7381H17.7383V14.6079C17.7383 14.0544 17.9581 13.5236 18.3495 13.1323C18.7409 12.7409 19.2716 12.521 19.8251 12.521H21.912C22.1887 12.521 22.4541 12.4111 22.6498 12.2154C22.8454 12.0197 22.9554 11.7543 22.9554 11.4776C22.9554 11.2009 22.8454 10.9355 22.6498 10.7398C22.4541 10.5441 22.1887 10.4342 21.912 10.4342H19.8251C18.7182 10.4342 17.6566 10.8739 16.8739 11.6566C16.0912 12.4394 15.6514 13.501 15.6514 14.6079V17.7381H12.5212C12.2444 17.7381 11.979 17.8481 11.7834 18.0438C11.5877 18.2394 11.4777 18.5048 11.4777 18.7816C11.4777 19.0583 11.5877 19.3237 11.7834 19.5194C11.979 19.7151 12.2444 19.825 12.5212 19.825H15.6514V28.1241C12.71 27.8556 9.98534 26.4635 8.04416 24.2373C6.10297 22.0111 5.09471 19.1223 5.22911 16.1717C5.3635 13.2212 6.63021 10.436 8.76573 8.39549C10.9013 6.35502 13.7412 5.21636 16.6949 5.21636C19.6485 5.21636 22.4884 6.35502 24.624 8.39549C26.7595 10.436 28.0262 13.2212 28.1606 16.1717C28.295 19.1223 27.2867 22.0111 25.3455 24.2373C23.4044 26.4635 20.6797 27.8556 17.7383 28.1241Z" fill="black"/>
</svg>
