<svg width="24" height="25" viewBox="0 0 24 25" fill="none" xmlns="http://www.w3.org/2000/svg">
<path d="M20.7834 19.1366L15 9.49445V4.1582H15.75C15.9489 4.1582 16.1397 4.07919 16.2803 3.93853C16.421 3.79788 16.5 3.60712 16.5 3.4082C16.5 3.20929 16.421 3.01853 16.2803 2.87787C16.1397 2.73722 15.9489 2.6582 15.75 2.6582H8.25C8.05109 2.6582 7.86032 2.73722 7.71967 2.87787C7.57902 3.01853 7.5 3.20929 7.5 3.4082C7.5 3.60712 7.57902 3.79788 7.71967 3.93853C7.86032 4.07919 8.05109 4.1582 8.25 4.1582H9V9.49445L3.21656 19.1366C3.08016 19.364 3.00648 19.6236 3.00304 19.8887C2.99959 20.1539 3.0665 20.4152 3.19695 20.6461C3.32739 20.877 3.51671 21.0691 3.74562 21.203C3.97452 21.3369 4.23482 21.4077 4.5 21.4082H19.5C19.7654 21.4082 20.0261 21.3377 20.2554 21.2041C20.4847 21.0704 20.6744 20.8783 20.8052 20.6473C20.936 20.4163 21.0031 20.1548 20.9998 19.8894C20.9965 19.624 20.9228 19.3643 20.7863 19.1366H20.7834ZM10.3931 10.0879C10.4633 9.97162 10.5002 9.83837 10.5 9.70258V4.1582H13.5V9.70258C13.4998 9.83837 13.5367 9.97162 13.6069 10.0879L17.19 16.0645C16.065 16.2866 14.4647 16.1929 12.3384 15.1166C10.8469 14.362 9.4275 13.9616 8.09906 13.9157L10.3931 10.0879ZM4.5 19.9082L7.17563 15.4476C8.51156 15.2845 10.0172 15.621 11.6588 16.4526C13.44 17.3535 14.94 17.6601 16.1588 17.6601C16.7786 17.6628 17.3957 17.5776 17.9916 17.407L19.5 19.9082H4.5Z" fill="white"/>
</svg>
