<svg width="24" height="25" viewBox="0 0 24 25" fill="none" xmlns="http://www.w3.org/2000/svg">
<path d="M23.6025 8.52709L12.3525 2.52709C12.244 2.46931 12.1229 2.43909 12 2.43909C11.8771 2.43909 11.756 2.46931 11.6475 2.52709L0.3975 8.52709C0.277504 8.59104 0.177151 8.68641 0.107175 8.80299C0.0371996 8.91958 0.000234604 9.05299 0.000234604 9.18896C0.000234604 9.32494 0.0371996 9.45835 0.107175 9.57493C0.177151 9.69152 0.277504 9.78689 0.3975 9.85084L3 11.2393V15.7786C2.99922 16.147 3.1348 16.5027 3.38063 16.7771C4.60875 18.1449 7.36031 20.439 12 20.439C13.5384 20.4517 15.0653 20.173 16.5 19.6177V22.689C16.5 22.8879 16.579 23.0786 16.7197 23.2193C16.8603 23.3599 17.0511 23.439 17.25 23.439C17.4489 23.439 17.6397 23.3599 17.7803 23.2193C17.921 23.0786 18 22.8879 18 22.689V18.893C18.978 18.3285 19.8618 17.6145 20.6194 16.7771C20.8652 16.5027 21.0008 16.147 21 15.7786V11.2393L23.6025 9.85084C23.7225 9.78689 23.8228 9.69152 23.8928 9.57493C23.9628 9.45835 23.9998 9.32494 23.9998 9.18896C23.9998 9.05299 23.9628 8.91958 23.8928 8.80299C23.8228 8.68641 23.7225 8.59104 23.6025 8.52709ZM12 18.939C7.94344 18.939 5.5575 16.9571 4.5 15.7786V12.039L11.6475 15.8508C11.756 15.9086 11.8771 15.9388 12 15.9388C12.1229 15.9388 12.244 15.9086 12.3525 15.8508L16.5 13.6393V17.9837C15.3188 18.5349 13.83 18.939 12 18.939ZM19.5 15.7749C19.0504 16.2738 18.5474 16.7218 18 17.1108V12.8386L19.5 12.039V15.7749ZM17.625 11.3396L17.6044 11.3274L12.3544 8.52709C12.1792 8.43762 11.9759 8.42054 11.7883 8.47953C11.6007 8.53852 11.4437 8.66885 11.3512 8.84245C11.2588 9.01605 11.2382 9.21903 11.294 9.40764C11.3498 9.59626 11.4774 9.75542 11.6494 9.85084L16.0312 12.189L12 14.3386L2.34375 9.18896L12 4.03927L21.6562 9.18896L17.625 11.3396Z" fill="white"/>
</svg>
