<svg width="33" height="35" viewBox="0 0 33 35" fill="none" xmlns="http://www.w3.org/2000/svg">
<path d="M26.932 28.4182L19.0813 15.5867L26.8279 6.72413C27.0031 6.51873 27.0934 6.2498 27.0792 5.97563C27.065 5.70146 26.9475 5.44415 26.7521 5.2595C26.5568 5.07484 26.2993 4.97771 26.0355 4.98917C25.7717 5.00063 25.5229 5.11976 25.343 5.32072L17.9638 13.762L12.8859 5.46289C12.7954 5.31467 12.6703 5.19261 12.5224 5.10802C12.3744 5.02343 12.2083 4.97906 12.0394 4.979H6.01968C5.83979 4.97891 5.66319 5.02912 5.50836 5.12438C5.35354 5.21963 5.22619 5.35643 5.13964 5.52044C5.0531 5.68445 5.01055 5.86964 5.01644 6.05662C5.02234 6.24361 5.07647 6.4255 5.17316 6.58326L13.0239 19.4134L5.27725 28.2825C5.18678 28.3836 5.11651 28.5023 5.07049 28.6318C5.02447 28.7613 5.00363 28.8991 5.00918 29.037C5.01472 29.175 5.04653 29.3104 5.10278 29.4355C5.15902 29.5606 5.23858 29.6728 5.33683 29.7657C5.43508 29.8585 5.55008 29.9302 5.67516 29.9765C5.80024 30.0228 5.93291 30.0428 6.06549 30.0354C6.19806 30.028 6.3279 29.9933 6.44748 29.9333C6.56706 29.8733 6.67401 29.7892 6.76211 29.6859L14.1413 21.2446L19.2192 29.5437C19.3105 29.6908 19.4359 29.8115 19.5838 29.895C19.7317 29.9784 19.8975 30.0218 20.0657 30.0211H26.0855C26.2652 30.0211 26.4415 29.9708 26.5962 29.8756C26.7508 29.7804 26.878 29.6438 26.9645 29.48C27.051 29.3162 27.0937 29.1312 27.0879 28.9444C27.0822 28.7577 27.0284 28.5759 26.932 28.4182ZM20.6163 27.9343L7.84692 7.06585H11.4838L24.2582 27.9343H20.6163Z" fill="black"/>
</svg>
