<svg width="34" height="34" viewBox="0 0 34 34" fill="none" xmlns="http://www.w3.org/2000/svg">
<path d="M27.8794 27.613L20.0287 14.7815L27.7753 5.91895C27.9505 5.71356 28.0408 5.44462 28.0266 5.17045C28.0125 4.89629 27.8949 4.63898 27.6996 4.45432C27.5042 4.26966 27.2467 4.17253 26.9829 4.184C26.7191 4.19546 26.4703 4.31458 26.2905 4.51555L18.9113 12.9568L13.8334 4.65771C13.7428 4.50949 13.6178 4.38743 13.4698 4.30284C13.3218 4.21826 13.1557 4.17388 12.9868 4.17383H6.9671C6.78721 4.17374 6.61061 4.22395 6.45579 4.3192C6.30096 4.41446 6.17361 4.55125 6.08706 4.71526C6.00052 4.87927 5.95797 5.06446 5.96386 5.25145C5.96976 5.43843 6.02389 5.62033 6.12058 5.77809L13.9713 18.6083L6.22467 27.4773C6.13421 27.5784 6.06393 27.6971 6.01791 27.8266C5.9719 27.9562 5.95106 28.0939 5.9566 28.2318C5.96214 28.3698 5.99396 28.5052 6.0502 28.6303C6.10644 28.7554 6.186 28.8676 6.28425 28.9605C6.38251 29.0533 6.49751 29.125 6.62258 29.1713C6.74766 29.2176 6.88034 29.2376 7.01291 29.2302C7.14548 29.2228 7.27532 29.1881 7.39491 29.1281C7.51449 29.0681 7.62143 28.984 7.70954 28.8807L15.0887 20.4395L20.1666 28.7386C20.2579 28.8856 20.3833 29.0064 20.5312 29.0898C20.6792 29.1732 20.8449 29.2166 21.0132 29.2159H27.0329C27.2126 29.2159 27.389 29.1656 27.5436 29.0704C27.6982 28.9753 27.8255 28.8386 27.912 28.6748C27.9985 28.511 28.0411 28.3261 28.0354 28.1393C28.0296 27.9525 27.9758 27.7707 27.8794 27.613ZM21.5637 27.1291L8.79434 6.26067H12.4313L25.2057 27.1291H21.5637Z" fill="white"/>
</svg>
