<svg width="34" height="34" viewBox="0 0 34 34" fill="none" xmlns="http://www.w3.org/2000/svg">
<path d="M21.4476 16.4366L15.1871 12.2629C15.0299 12.1581 14.8472 12.0979 14.6585 12.0887C14.4697 12.0796 14.2821 12.1218 14.1155 12.211C13.9489 12.3002 13.8097 12.4329 13.7126 12.5951C13.6156 12.7572 13.5644 12.9426 13.5645 13.1316V21.479C13.5644 21.6679 13.6156 21.8533 13.7126 22.0155C13.8097 22.1776 13.9489 22.3103 14.1155 22.3995C14.2821 22.4887 14.4697 22.531 14.6585 22.5218C14.8472 22.5127 15.0299 22.4525 15.1871 22.3476L21.4476 18.1739C21.5907 18.0787 21.7081 17.9495 21.7893 17.798C21.8705 17.6464 21.9129 17.4772 21.9129 17.3053C21.9129 17.1334 21.8705 16.9641 21.7893 16.8126C21.7081 16.661 21.5907 16.5319 21.4476 16.4366ZM15.6514 19.5291V15.088L18.9877 17.3053L15.6514 19.5291ZM30.5632 9.67786C30.4403 9.19704 30.2048 8.75233 29.8762 8.38041C29.5476 8.0085 29.1353 7.72005 28.6733 7.53885C24.2022 5.81199 17.0861 5.82764 16.6948 5.82764C16.3035 5.82764 9.18739 5.81199 4.71634 7.53885C4.25431 7.72005 3.84199 8.0085 3.51339 8.38041C3.1848 8.75233 2.94933 9.19704 2.82644 9.67786C2.48863 10.9795 2.08691 13.3585 2.08691 17.3053C2.08691 21.252 2.48863 23.631 2.82644 24.9327C2.94915 25.4137 3.18453 25.8587 3.51314 26.2309C3.84175 26.603 4.25416 26.8917 4.71634 27.073C8.99958 28.7255 15.7036 28.7829 16.6087 28.7829H16.7809C17.6861 28.7829 24.394 28.7255 28.6733 27.073C29.1355 26.8917 29.5479 26.603 29.8765 26.2309C30.2051 25.8587 30.4405 25.4137 30.5632 24.9327C30.901 23.6284 31.3027 21.252 31.3027 17.3053C31.3027 13.3585 30.901 10.9795 30.5632 9.67786ZM28.5429 24.4162C28.5031 24.5762 28.426 24.7245 28.3179 24.849C28.2097 24.9735 28.0736 25.0705 27.9207 25.1322C23.7927 26.7261 16.7718 26.6974 16.7039 26.6974H16.6948C16.6244 26.6974 9.60868 26.7234 5.47803 25.1322C5.32513 25.0705 5.18903 24.9735 5.08089 24.849C4.97275 24.7245 4.89564 24.5762 4.85589 24.4162C4.53895 23.2254 4.17376 21.0316 4.17376 17.3053C4.17376 13.579 4.53895 11.3852 4.84676 10.2009C4.88577 10.0399 4.96254 9.89053 5.07073 9.76511C5.17891 9.63969 5.3154 9.54183 5.4689 9.47962C9.44955 7.94187 16.1196 7.91448 16.6661 7.91448H16.7013C16.7718 7.91448 23.794 7.89101 27.9181 9.47962C28.071 9.54132 28.2071 9.63839 28.3152 9.76286C28.4234 9.88732 28.5005 10.0356 28.5402 10.1957C28.8507 11.3852 29.2159 13.579 29.2159 17.3053C29.2159 21.0316 28.8507 23.2254 28.5429 24.4097V24.4162Z" fill="black"/>
</svg>
