<svg width="34" height="34" viewBox="0 0 34 34" fill="none" xmlns="http://www.w3.org/2000/svg">
<path d="M22.058 15.8263L15.7975 11.6526C15.6403 11.5477 15.4576 11.4875 15.2689 11.4784C15.0802 11.4692 14.8925 11.5115 14.7259 11.6007C14.5594 11.6899 14.4201 11.8226 14.3231 11.9847C14.2261 12.1469 14.1749 12.3323 14.175 12.5212V20.8686C14.1749 21.0576 14.2261 21.243 14.3231 21.4051C14.4201 21.5672 14.5594 21.7 14.7259 21.7892C14.8925 21.8784 15.0802 21.9206 15.2689 21.9115C15.4576 21.9023 15.6403 21.8421 15.7975 21.7373L22.058 17.5636C22.2012 17.4683 22.3185 17.3392 22.3997 17.1876C22.4809 17.0361 22.5234 16.8668 22.5234 16.6949C22.5234 16.523 22.4809 16.3537 22.3997 16.2022C22.3185 16.0507 22.2012 15.9215 22.058 15.8263ZM16.2618 18.9187V14.4777L19.5982 16.6949L16.2618 18.9187ZM31.1736 9.06751C31.0507 8.58669 30.8153 8.14197 30.4867 7.77006C30.1581 7.39815 29.7458 7.1097 29.2837 6.9285C24.8127 5.20164 17.6965 5.21729 17.3053 5.21729C16.914 5.21729 9.79784 5.20164 5.32679 6.9285C4.86476 7.1097 4.45244 7.39815 4.12384 7.77006C3.79525 8.14197 3.55979 8.58669 3.43689 9.06751C3.09908 10.3692 2.69736 12.7482 2.69736 16.6949C2.69736 20.6417 3.09908 23.0207 3.43689 24.3223C3.5596 24.8034 3.79498 25.2484 4.12359 25.6205C4.4522 25.9927 4.86461 26.2813 5.32679 26.4626C9.61003 28.1152 16.314 28.1726 17.2192 28.1726H17.3913C18.2965 28.1726 25.0044 28.1152 29.2837 26.4626C29.7459 26.2813 30.1583 25.9927 30.4869 25.6205C30.8155 25.2484 31.0509 24.8034 31.1736 24.3223C31.5114 23.0181 31.9132 20.6417 31.9132 16.6949C31.9132 12.7482 31.5114 10.3692 31.1736 9.06751ZM29.1533 23.8058C29.1136 23.9659 29.0365 24.1142 28.9283 24.2386C28.8202 24.3631 28.6841 24.4602 28.5312 24.5219C24.4031 26.1157 17.3822 26.087 17.3144 26.087H17.3053C17.2348 26.087 10.2191 26.1131 6.08848 24.5219C5.93558 24.4602 5.79948 24.3631 5.69134 24.2386C5.5832 24.1142 5.50609 23.9659 5.46634 23.8058C5.1494 22.615 4.78421 20.4212 4.78421 16.6949C4.78421 12.9686 5.1494 10.7748 5.45721 9.59053C5.49622 9.42956 5.573 9.28018 5.68118 9.15476C5.78936 9.02934 5.92585 8.93148 6.07935 8.86926C10.06 7.33152 16.7301 7.30413 17.2766 7.30413H17.3118C17.3822 7.30413 24.4044 7.28066 28.5286 8.86926C28.6815 8.93097 28.8176 9.02804 28.9257 9.1525C29.0338 9.27697 29.1109 9.42529 29.1507 9.58531C29.4611 10.7748 29.8263 12.9686 29.8263 16.6949C29.8263 20.4212 29.4611 22.615 29.1533 23.7993V23.8058Z" fill="white"/>
</svg>
