<svg width="95" height="71" viewBox="0 0 95 71" fill="none" xmlns="http://www.w3.org/2000/svg">
<path fill-rule="evenodd" clip-rule="evenodd" d="M77.8923 48.588H78.7812L79.0027 48.5875L79.2193 48.5865L79.4314 48.5845L79.6384 48.582L79.8409 48.578L80.0388 48.574L80.2318 48.5685L80.4197 48.5625L80.6031 48.556L80.782 48.5485L80.9558 48.5405L81.1252 48.5314L81.2895 48.5214L81.4493 48.5109L81.6045 48.4994L81.7548 48.4874L81.9 48.4743L82.0407 48.4603L82.1768 48.4458L82.308 48.4303L82.4346 48.4142L82.5562 48.3972L82.6728 48.3797L82.7853 48.3616L82.8924 48.3421L82.9954 48.3221L83.0933 48.301L83.1868 48.28L83.2747 48.2575L83.3586 48.2344L83.4375 48.2104L83.5119 48.1858L83.5822 48.1603L83.6511 48.1332L83.7169 48.1052L83.7812 48.0761L83.843 48.0461L83.9023 48.0145L83.9601 47.982L84.0149 47.9479L84.0676 47.9134L84.1184 47.8773L84.1666 47.8402L84.2133 47.8017L84.2571 47.7621L84.2988 47.721L84.338 47.6794L84.3751 47.6364L84.4103 47.5923L84.443 47.5467L84.4731 47.5001L84.5013 47.4525L84.5274 47.404L84.551 47.3539L84.5726 47.3028L84.5917 47.2502L84.6088 47.1966L84.6239 47.142L84.6359 47.0864L84.6465 47.0293L84.654 46.9712L84.66 46.9116L84.6636 46.8515L84.6641 46.7899L84.6631 46.7253L84.6595 46.6617L84.6535 46.5995L84.645 46.5384L84.6339 46.4783L84.6208 46.4197L84.6053 46.3621L84.5867 46.3055L84.5666 46.2499L84.5435 46.1963L84.5178 46.1432L84.4907 46.0917L84.4606 46.0411L84.4279 45.992L84.3927 45.9439L84.355 45.8968L84.3153 45.8507L84.2731 45.8061L84.2284 45.7626L84.1817 45.7205L84.1319 45.6794L84.0802 45.6394L84.0254 45.6008L83.9686 45.5632L83.9099 45.5267L83.8481 45.4916L83.7842 45.4575L83.7179 45.4245L83.6491 45.3929L83.5777 45.3624L83.5039 45.3333L83.428 45.3053L83.3486 45.2777L83.2652 45.2522L83.1773 45.2261L83.0853 45.2021L82.9888 45.178L82.8878 45.1555L82.7833 45.134L82.6743 45.1129L82.5602 45.0924L82.4426 45.0734L82.321 45.0548L82.1949 45.0373L82.0643 45.0208L81.9296 45.0047L81.7904 44.9902L81.6477 44.9762L81.5 44.9627L81.3488 44.9501L81.1925 44.9386L81.0327 44.9281L80.8684 44.9181L80.6996 44.9091L80.5267 44.9011L80.3499 44.894L80.1685 44.8875L79.9831 44.882L79.7931 44.877L79.5992 44.8735L79.4012 44.8705L79.1987 44.868L78.9922 44.867L78.7812 44.8665H77.8923V48.588ZM89.843 61.0279L90.3193 60.4885H90.8831L90.151 61.0279H89.843ZM91.3419 64.2161L90.9253 63.4682H89.4727L89.0466 64.2161H88.4195L90.1962 61.1982L91.9704 64.2161H91.3419ZM89.6928 63.0756H90.7148L90.3394 62.4139L90.2716 62.2676L90.2018 62.0843L90.1374 62.2621L90.0691 62.4139L89.6928 63.0756ZM84.7962 64.2161V61.1982L87.1261 62.9729L87.3196 63.1332L87.5251 63.3265V61.3134H88.0768V64.3293L85.6986 62.5231L85.5147 62.3683C85.4544 62.3137 85.3982 62.2576 85.3454 62.198V64.2161H84.7962ZM83.8209 64.2161L83.4044 63.4682H81.9517L81.5256 64.2161H80.8986L82.6753 61.1982L84.4495 64.2161H83.8209ZM82.1713 63.0756H83.1938L82.8185 62.4139L82.7507 62.2676L82.6808 62.0843L82.6165 62.2621L82.5482 62.4139L82.1713 63.0756ZM79.0816 62.9178V64.2161H78.5234V61.3134H79.3545C79.5987 61.3134 79.7886 61.326 79.9228 61.3515C80.0569 61.3766 80.1715 61.4176 80.2675 61.4757C80.381 61.5464 80.4684 61.637 80.5308 61.7477C80.5926 61.8589 80.6232 61.9801 80.6232 62.1124C80.6232 62.3448 80.5524 62.5266 80.4102 62.6588C80.268 62.79 80.0579 62.8692 79.7806 62.8957L81.0443 64.2161H80.37L79.1495 62.9178H79.0816ZM79.1193 62.5506H79.2274C79.5429 62.5506 79.7524 62.5216 79.8559 62.463C79.9594 62.4049 80.0117 62.3022 80.0117 62.1539C80.0117 61.9941 79.9559 61.882 79.8449 61.8163C79.7338 61.7507 79.5278 61.7182 79.2274 61.7182H79.1193V62.5506ZM77.5481 64.2161L77.1316 63.4682H75.6789L75.2528 64.2161H74.6257L76.4025 61.1982L78.1767 64.2161H77.5481ZM75.8985 63.0756H76.921L76.5452 62.4139C76.5212 62.3659 76.4987 62.3171 76.4778 62.2676C76.4547 62.2125 76.4311 62.1519 76.4075 62.0843C76.3874 62.1479 76.3668 62.2075 76.3432 62.2621C76.3211 62.3172 76.298 62.3668 76.2749 62.4139L75.8985 63.0756ZM73.2324 62.9133V64.2161H72.6737V61.3134H73.5761C73.8429 61.3134 74.0399 61.3245 74.1665 61.348C74.2921 61.3711 74.4027 61.4096 74.4956 61.4627C74.6088 61.5273 74.7025 61.6211 74.7669 61.7342C74.8318 61.8489 74.8644 61.9746 74.8644 62.1124C74.8644 62.2501 74.8318 62.3763 74.7669 62.493C74.7021 62.6097 74.6112 62.7009 74.4956 62.7665C74.4027 62.8191 74.2921 62.8572 74.1665 62.8797C74.0399 62.9017 73.8429 62.9133 73.5761 62.9133H73.458H73.2324ZM73.2701 62.5266H73.4228C73.754 62.5266 73.975 62.4985 74.0851 62.4414C74.1951 62.3848 74.2504 62.2847 74.2504 62.1404C74.2504 61.9856 74.1911 61.8764 74.0735 61.8138C73.956 61.7497 73.7389 61.7182 73.4228 61.7182H73.2701V62.5266ZM70.4412 62.7705C70.4412 62.9769 70.3925 63.1717 70.2945 63.355C70.1965 63.5389 70.0543 63.7032 69.8669 63.8474C69.6779 63.9912 69.4649 64.1019 69.2277 64.178C68.9911 64.2546 68.7418 64.2932 68.4811 64.2932C68.2168 64.2932 67.9655 64.2546 67.7259 64.177C67.4857 64.0994 67.2741 63.9902 67.0902 63.8474C66.9028 63.7032 66.7611 63.5399 66.6646 63.3575C66.5677 63.1752 66.5189 62.9799 66.5189 62.7705C66.5189 62.5626 66.5677 62.3668 66.6646 62.184C66.7611 61.9997 66.9028 61.8349 67.0902 61.6896C67.2777 61.5459 67.4897 61.4362 67.7269 61.361C67.9635 61.2859 68.2153 61.2478 68.4811 61.2478C68.7454 61.2478 68.9951 61.2859 69.2318 61.361C69.4684 61.4362 69.6794 61.5459 69.8669 61.6896C70.0543 61.8364 70.1965 62.0022 70.2945 62.1865C70.3925 62.3713 70.4412 62.5657 70.4412 62.7705ZM69.8191 62.7705C69.8192 62.625 69.7842 62.4815 69.7171 62.3523C69.6498 62.22 69.5528 62.1028 69.4257 61.9997C69.3026 61.8975 69.1589 61.8193 68.9961 61.7647C68.8328 61.7101 68.662 61.6821 68.4811 61.6821C68.3007 61.6821 68.1288 61.7096 67.9665 61.7632C67.8037 61.8178 67.6585 61.896 67.5319 61.9997C67.4053 62.1013 67.3078 62.218 67.241 62.3498C67.1741 62.4825 67.1405 62.6228 67.1405 62.7705C67.1405 62.9178 67.1741 63.0565 67.241 63.1877C67.3078 63.318 67.4053 63.4352 67.5319 63.5379C67.6585 63.6415 67.8027 63.7202 67.9655 63.7743C68.1273 63.8284 68.2987 63.8554 68.4811 63.8554C68.6599 63.8554 68.8303 63.8284 68.9911 63.7743C69.1519 63.7202 69.2976 63.6415 69.4257 63.5379C69.5528 63.4352 69.6498 63.318 69.7171 63.1862C69.7843 63.0579 69.8193 62.9153 69.8191 62.7705ZM62.8801 64.2161V61.3134H63.684C64.2076 61.3134 64.5754 61.3345 64.7884 61.3761C65.0015 61.4176 65.1879 61.4873 65.3487 61.5849C65.5607 61.7132 65.7215 61.8779 65.831 62.0788C65.9406 62.2802 65.9954 62.5091 65.9954 62.7665C65.9954 63.0245 65.9406 63.2529 65.831 63.4517C65.7215 63.6511 65.5607 63.8149 65.3487 63.9446C65.1879 64.0423 65.0055 64.1119 64.8015 64.1539C64.596 64.195 64.2774 64.2161 63.8448 64.2161H63.684H62.8801ZM63.476 63.7898H63.9774C64.2528 63.7898 64.4598 63.7753 64.5975 63.7467C64.7352 63.7172 64.8553 63.6676 64.9578 63.5995C65.0964 63.5053 65.1999 63.3891 65.2688 63.2499C65.3381 63.1101 65.3738 62.9478 65.3738 62.7625C65.3738 62.5777 65.3381 62.4154 65.2688 62.2756C65.1999 62.1364 65.0964 62.0202 64.9578 61.926C64.8542 61.8574 64.7291 61.8083 64.5859 61.7793C64.4412 61.7497 64.2141 61.7357 63.9071 61.7357H63.6915H63.476V63.7898ZM58.9176 64.2161V61.3134H59.5135V63.7938H60.8471V64.2161H58.9176ZM57.9423 64.2161L57.5258 63.4682H56.0731L55.647 64.2161H55.0199L56.7972 61.1982L58.5709 64.2161H57.9423ZM56.2932 63.0756H57.3152L56.9399 62.4139C56.9183 62.3713 56.8952 62.3227 56.872 62.2676C56.8489 62.2125 56.8253 62.1519 56.8017 62.0843C56.7816 62.1479 56.761 62.2075 56.7379 62.2621C56.7158 62.3172 56.6927 62.3668 56.6695 62.4139L56.2932 63.0756ZM53.2035 62.9178V64.2161H52.6448V61.3134H53.4764C53.7201 61.3134 53.91 61.326 54.0441 61.3515C54.1783 61.3766 54.2929 61.4176 54.3888 61.4757C54.5024 61.5464 54.5898 61.637 54.6526 61.7477C54.7139 61.8589 54.7446 61.9801 54.7446 62.1124C54.7446 62.3448 54.6737 62.5266 54.532 62.6588C54.3898 62.79 54.1793 62.8692 53.9019 62.8957L55.1657 64.2161H54.4913L53.2708 62.9178H53.2035ZM53.2412 62.5506H53.3487C53.6643 62.5506 53.8738 62.5216 53.9773 62.463C54.0808 62.4049 54.1331 62.3022 54.1331 62.1539C54.1331 61.9941 54.0773 61.882 53.9663 61.8163C53.8552 61.7507 53.6492 61.7182 53.3487 61.7182H53.2412V62.5506ZM49.9134 64.2161V61.3134H51.9609V61.7142H50.5093V62.4414H51.9609V62.8557H50.5093V63.7938H51.9609V64.2161H49.9134ZM46.1142 64.2161V61.3134H46.9181C47.4417 61.3134 47.81 61.3345 48.0226 61.3761C48.2361 61.4176 48.4225 61.4873 48.5833 61.5849C48.7949 61.7132 48.9562 61.8779 49.0657 62.0788C49.1747 62.2802 49.2295 62.5091 49.2295 62.7665C49.2295 63.0245 49.1747 63.2529 49.0657 63.4517C48.9562 63.6511 48.7949 63.8149 48.5833 63.9446C48.4225 64.0423 48.2401 64.1119 48.0356 64.1539C47.8301 64.195 47.5121 64.2161 47.0789 64.2161H46.9181H46.1142ZM46.7101 63.7898H47.2116C47.4869 63.7898 47.6945 63.7753 47.8321 63.7467C47.9698 63.7172 48.0894 63.6676 48.1919 63.5995C48.3306 63.5053 48.4341 63.3891 48.5034 63.2499C48.5728 63.1101 48.6079 62.9478 48.6079 62.7625C48.6079 62.5777 48.5728 62.4154 48.5034 62.2756C48.4341 62.1364 48.3306 62.0202 48.1919 61.926C48.0884 61.8574 47.9638 61.8083 47.8201 61.7793C47.6754 61.7497 47.4487 61.7357 47.1417 61.7357H46.9262H46.7101V63.7898ZM43.3828 64.2161V61.3134H45.4308V61.7142H43.9792V62.4414H45.4308V62.8557H43.9792V63.7938H45.4308V64.2161H43.3828ZM40.689 64.2161V61.3134H42.7371V61.7142H41.2855V62.4374H42.7371V62.8517H41.2855V64.2161H40.689ZM36.4085 64.2161V61.3134H38.4561V61.7142H37.0049V62.4414H38.4561V62.8557H37.0049V63.7938H38.4561V64.2161H36.4085ZM32.6099 64.2161V61.3134H33.4138C33.9374 61.3134 34.3052 61.3345 34.5182 61.3761C34.7313 61.4176 34.9177 61.4873 35.078 61.5849C35.2905 61.7132 35.4513 61.8779 35.5609 62.0788C35.6704 62.2802 35.7252 62.5091 35.7252 62.7665C35.7252 63.0245 35.6704 63.2529 35.5609 63.4517C35.4513 63.6511 35.2905 63.8149 35.078 63.9446C34.9177 64.0423 34.7353 64.1119 34.5308 64.1539C34.3253 64.195 34.0072 64.2161 33.5746 64.2161H33.4138H32.6099ZM33.2058 63.7898H33.7072C33.9826 63.7898 34.1896 63.7753 34.3273 63.7467C34.465 63.7172 34.5846 63.6676 34.6871 63.5995C34.8257 63.5053 34.9292 63.3891 34.9986 63.2499C35.0679 63.1101 35.1031 62.9478 35.1031 62.7625C35.1031 62.5777 35.0679 62.4154 34.9986 62.2756C34.9292 62.1364 34.8257 62.0202 34.6871 61.926C34.5841 61.8574 34.4589 61.8083 34.3152 61.7793C34.1705 61.7497 33.9439 61.7357 33.6369 61.7357H33.4213H33.2058V63.7898ZM31.6346 64.2161L31.218 63.4682H29.7649L29.3393 64.2161H28.7122L30.4889 61.1982L32.2632 64.2161H31.6346ZM29.985 63.0756H31.0075L30.6316 62.4139C30.6076 62.3659 30.5852 62.3171 30.5643 62.2676C30.5388 62.2073 30.5153 62.1462 30.494 62.0843C30.4734 62.1479 30.4528 62.2075 30.4296 62.2621C30.4075 62.3172 30.3844 62.3668 30.3613 62.4139L29.985 63.0756ZM25.5019 64.2161V61.3134H26.3059C26.8295 61.3134 27.1973 61.3345 27.4103 61.3761C27.6234 61.4176 27.8098 61.4873 27.9706 61.5849C28.1826 61.7132 28.3439 61.8779 28.4529 62.0788C28.5625 62.2802 28.6172 62.5091 28.6172 62.7665C28.6172 63.0245 28.5625 63.2529 28.4529 63.4517C28.3439 63.6511 28.1826 63.8149 27.9706 63.9446C27.8098 64.0423 27.6274 64.1119 27.4234 64.1539C27.2179 64.195 26.8993 64.2161 26.4667 64.2161H26.3059H25.5019ZM26.0979 63.7898H26.5993C26.8747 63.7898 27.0817 63.7753 27.2194 63.7467C27.3571 63.7172 27.4771 63.6676 27.5796 63.5995C27.7183 63.5053 27.8218 63.3891 27.8907 63.2499C27.9605 63.1101 27.9952 62.9478 27.9952 62.7625C27.9952 62.5777 27.9605 62.4154 27.8907 62.2756C27.8218 62.1364 27.7183 62.0202 27.5796 61.926C27.4761 61.8574 27.351 61.8083 27.2073 61.7793C27.0631 61.7497 26.836 61.7357 26.5295 61.7357H26.3134H26.0979V63.7898ZM24.0483 61.3134H24.6447V64.2161H24.0483V61.3134ZM21.0109 63.6345L21.4862 63.4607C21.5319 63.59 21.6149 63.6886 21.7344 63.7568C21.855 63.8249 22.0093 63.8584 22.1957 63.8584C22.3726 63.8584 22.5138 63.8194 22.6183 63.7412C22.7223 63.6636 22.775 63.5599 22.775 63.4287C22.775 63.2584 22.5957 63.1061 22.2384 62.9729L22.1228 62.9293C21.7189 62.7735 21.4495 62.6323 21.3154 62.5061C21.1812 62.3803 21.1134 62.2251 21.1134 62.0427C21.1134 61.8063 21.2154 61.6145 21.4179 61.4677C21.6204 61.321 21.8867 61.2478 22.2163 61.2478C22.4861 61.2478 22.7132 61.2889 22.8951 61.3716C23.0775 61.4542 23.2032 61.5734 23.2735 61.7277L22.8072 61.918C22.7338 61.8264 22.6534 61.7597 22.565 61.7182C22.4776 61.6756 22.3771 61.6546 22.263 61.6546C22.1032 61.6546 21.9756 61.6876 21.8817 61.7532C21.7867 61.8193 21.7395 61.9085 21.7395 62.0192C21.7395 62.194 21.9465 62.3563 22.3615 62.5066C22.3861 62.5164 22.4108 62.5256 22.4359 62.5341C22.7987 62.6668 23.0474 62.7961 23.1836 62.9223C23.3187 63.0485 23.3866 63.2063 23.3866 63.3951C23.3866 63.6696 23.277 63.8885 23.0579 64.0503C22.8389 64.2121 22.5439 64.2932 22.1706 64.2932C21.8585 64.2932 21.6028 64.2361 21.4028 64.1229C21.2033 64.0087 21.0722 63.8464 21.0109 63.6345ZM18.9055 62.9178V64.2161H18.3468V61.3134H19.1784C19.4221 61.3134 19.612 61.326 19.7467 61.3515C19.8808 61.3766 19.9954 61.4176 20.0914 61.4757C20.2049 61.5464 20.2924 61.637 20.3547 61.7477C20.4165 61.8589 20.4471 61.9801 20.4471 62.1124C20.4471 62.3448 20.3763 62.5266 20.2341 62.6588C20.0919 62.79 19.8818 62.8692 19.6045 62.8957L20.8677 64.2161H20.1939L18.9734 62.9178H18.9055ZM18.9432 62.5506H19.0513C19.3668 62.5506 19.5763 62.5216 19.6798 62.463C19.7834 62.4049 19.8356 62.3022 19.8356 62.1539C19.8356 61.9941 19.7798 61.882 19.6688 61.8163C19.5572 61.7507 19.3512 61.7182 19.0513 61.7182H18.9432V62.5506ZM15.6154 64.2161V61.3134H17.6634V61.7142H16.2118V62.4414H17.6634V62.8557H16.2118V63.7938H17.6634V64.2161H15.6154ZM13.608 64.3293L11.9715 61.3134H12.5905L13.4126 62.8602C13.4608 62.9503 13.501 63.0325 13.5326 63.1091C13.5643 63.1847 13.5899 63.2574 13.608 63.3265C13.6313 63.2495 13.6589 63.1739 13.6909 63.1001C13.7241 63.0215 13.7638 62.9418 13.8085 62.8602L14.6275 61.3134H15.2441L13.608 64.3293ZM10.9892 61.3134H11.5856V64.2161H10.9892V61.3134ZM6.85686 64.2161V61.1982L9.1868 62.9729C9.25267 63.0246 9.31718 63.0781 9.38025 63.1332C9.45097 63.1952 9.51951 63.2597 9.58576 63.3265V61.3134H10.1375V64.3293L7.75929 62.5231C7.69598 62.474 7.63417 62.4229 7.57538 62.3683C7.51559 62.3137 7.45881 62.2576 7.40605 62.198V64.2161H6.85686ZM3.02302 61.3134H3.61141V63.0756C3.61141 63.338 3.68729 63.5339 3.84054 63.6661C3.99329 63.7973 4.22191 63.8629 4.5259 63.8629C4.82839 63.8629 5.05601 63.7973 5.20926 63.6661C5.36251 63.5339 5.43839 63.338 5.43839 63.0756V61.3134H6.03482V63.1201C6.03482 63.5123 5.9097 63.8058 5.65897 64.0007C5.40874 64.196 5.03038 64.2932 4.52691 64.2932C4.02193 64.2932 3.64458 64.196 3.39585 64.0012C3.14663 63.8073 3.02302 63.5133 3.02302 63.1201V61.3134ZM3.02905 42.5589H7.4563V51.1471L7.45781 51.2663L7.46283 51.3825L7.47137 51.4977L7.48293 51.6109L7.498 51.7221L7.5166 51.8318L7.5382 51.9389L7.56383 52.0451L7.59197 52.1483L7.62412 52.2505L7.6593 52.3507L7.69799 52.4488L7.74019 52.545L7.78542 52.6397L7.83416 52.7323L7.88641 52.823L7.94219 52.9117L8.00097 52.9988L8.06328 53.0845L8.1291 53.1671L8.19794 53.2487L8.2708 53.3284L8.34617 53.4065L8.42556 53.4827L8.50797 53.5563L8.59389 53.6289L8.68383 53.6995L8.77628 53.7677L8.87226 53.8343L8.97225 53.8994L9.07475 53.9625L9.18127 54.0236L9.29081 54.0827L9.40387 54.1398L9.52044 54.1954L9.63952 54.2485L9.76263 54.3006L9.88925 54.3497L10.0184 54.3973L10.1515 54.4439L10.2877 54.4874L10.4274 54.53L10.5701 54.5701L10.7163 54.6086L10.8655 54.6452L11.0188 54.6798L11.1751 54.7128L11.3343 54.7439L11.4971 54.7729L11.663 54.8L11.8323 54.825L12.0051 54.8486L12.1815 54.8701L12.3604 54.8896L12.5433 54.9077L12.7292 54.9237L12.9186 54.9377L13.1111 54.9497L13.3075 54.9603L13.5065 54.9683L13.709 54.9748L13.915 54.9798L14.1241 54.9828L14.3366 54.9838L14.5486 54.9828L14.7572 54.9798L14.9627 54.9748L15.1647 54.9683L15.3636 54.9603L15.5586 54.9497L15.7505 54.9377L15.9395 54.9237L16.1249 54.9077L16.3073 54.8896L16.4857 54.8701L16.661 54.8486L16.8339 54.825L17.0027 54.8L17.168 54.7729L17.3303 54.7439L17.4896 54.7128L17.6448 54.6798L17.7976 54.6452L17.9468 54.6086L18.0925 54.5701L18.2352 54.53L18.3739 54.4874L18.5101 54.4439L18.6433 54.3973L18.7724 54.3497L18.8985 54.3006L19.0211 54.2485L19.1407 54.1954L19.2568 54.1398L19.3698 54.0827L19.4794 54.0236L19.5859 53.9625L19.6889 53.8994L19.7884 53.8343L19.8843 53.7677L19.9773 53.6995L20.0667 53.6289L20.1522 53.5563L20.2351 53.4827L20.3145 53.4065L20.3903 53.3284L20.4627 53.2487L20.5315 53.1671L20.5974 53.0845L20.6597 52.9988L20.7184 52.9117L20.7742 52.823L20.8265 52.7323L20.8752 52.6397L20.9204 52.545L20.9626 52.4488L21.0013 52.3507L21.0365 52.2505L21.0687 52.1483L21.0973 52.0451L21.1224 51.9389L21.144 51.8318L21.1626 51.7221L21.1777 51.6109L21.1898 51.4977L21.1978 51.3825L21.2028 51.2663L21.2048 51.1471V42.5589H25.6894V51.3614L25.6869 51.5397L25.6783 51.7145L25.6647 51.8869L25.6451 52.0562L25.6205 52.2229L25.5904 52.3867L25.5547 52.5475L25.513 52.7058L25.4663 52.8611L25.414 53.0138L25.3562 53.1631L25.2929 53.3099L25.2241 53.4546L25.1492 53.5954L25.0693 53.7341L24.9839 53.8693L24.893 54.0026L24.7965 54.1323L24.6945 54.2595L24.5869 54.3837L24.4739 54.505L24.3553 54.6242L24.2307 54.7399L24.1011 54.8531L23.9659 54.9633L23.8252 55.0705L23.679 55.1751L23.5272 55.2768L23.3695 55.3755L23.2067 55.4717L23.0383 55.5653L22.8645 55.6555L22.6846 55.7431L22.4997 55.8278L22.3088 55.9099L22.1123 55.9896L21.9103 56.0662L21.7028 56.1398L21.4892 56.2105L21.2702 56.2791L21.0461 56.3442L20.8159 56.4068L20.5803 56.4664L20.3391 56.5235L20.0924 56.5781L19.8396 56.6297L19.5819 56.6783L19.3181 56.7244L19.0487 56.7674L18.7744 56.8075L18.494 56.8451L18.2081 56.8801L17.9167 56.9117L17.6192 56.9408L17.3167 56.9678L17.0087 56.9913L16.6947 57.0124L16.3756 57.0304L16.0505 57.0454L15.7204 57.058L15.3842 57.068L15.0431 57.075L14.6959 57.079L14.3431 57.0805L13.9899 57.079L13.6422 57.075L13.3005 57.068L12.9639 57.058L12.6332 57.0454L12.3086 57.0304L11.9891 57.0124L11.675 56.9913L11.367 56.9678L11.064 56.9412L10.7676 56.9122L10.4761 56.8801L10.1902 56.8451L9.91035 56.8075L9.63601 56.7674L9.36719 56.7249L9.1044 56.6788L8.84663 56.6302L8.59489 56.5786L8.34868 56.5245L8.108 56.4674L7.87335 56.4083L7.64422 56.3457L7.42062 56.2806L7.20255 56.212L6.99001 56.1418L6.78349 56.0682L6.58251 55.9916L6.38705 55.9124L6.19711 55.8308L6.01321 55.7461L5.83483 55.659L5.66249 55.5688L5.49466 55.4757L5.33287 55.38L5.1766 55.2813L5.02586 55.1797L4.88065 55.0755L4.74046 54.9678L4.6063 54.8581L4.47767 54.7449L4.35456 54.6292L4.23648 54.511L4.12393 54.3893L4.01741 54.265L3.91591 54.1378L3.81994 54.0081L3.72949 53.8749L3.64458 53.7396L3.56569 53.6009L3.49183 53.4591L3.42299 53.3154L3.36018 53.1681L3.30239 53.0178L3.25064 52.8651L3.20391 52.7098L3.16321 52.551L3.12754 52.3897L3.09739 52.2255L3.07277 52.0582L3.05367 51.8884L3.04011 51.7156L3.03156 51.5397L3.02905 51.3614V42.5589ZM30.3246 56.7043V42.5589H45.7313V44.5104H34.8092V48.0371H45.7313V50.0551H34.8092V56.7043H30.3246ZM50.5208 56.7043V42.5589H57.3107L57.6468 42.5599L57.9775 42.5629L58.3031 42.5679L58.6231 42.5755L58.9372 42.5845L59.2457 42.596L59.5492 42.6095L59.8467 42.625L60.1391 42.6426L60.4255 42.6621L60.7069 42.6841L60.9822 42.7077L61.2526 42.7332L61.5169 42.7613L61.7761 42.7918L62.0294 42.8239L62.2776 42.858L62.5198 42.894L62.7564 42.9326L62.9881 42.9732L63.2137 43.0157L63.4338 43.0603L63.6483 43.1069L63.8579 43.1555L64.0608 43.2066L64.2593 43.2597L64.4513 43.3148L64.6382 43.3714L64.8191 43.4305L64.9949 43.4921L65.1653 43.5552L65.3296 43.6208L65.4894 43.6879L65.6441 43.758L65.7934 43.8302L65.9381 43.9048L66.0773 43.9814L66.2114 44.0606L66.3411 44.1412L66.4652 44.2249L66.5842 44.3105L66.6983 44.3982L66.8073 44.4888L66.9109 44.581L67.0098 44.6762L67.1033 44.7733L67.1922 44.872L67.2756 44.9737L67.354 45.0774L67.4274 45.1836L67.4957 45.2917L67.559 45.4024L67.6168 45.5151L67.6701 45.6303L67.7183 45.7475L67.7615 45.8673L67.7992 45.989L67.8319 46.1132L67.86 46.2394L67.8826 46.3681L67.9002 46.4994L67.9128 46.6326L67.9203 46.7678L67.9233 46.9056L67.9203 47.0328L67.9128 47.159L67.9002 47.2832L67.8821 47.406L67.859 47.5267L67.8314 47.6459L67.7982 47.7631L67.76 47.8788L67.7168 47.9925L67.6681 48.1047L67.6148 48.2149L67.556 48.3241L67.4927 48.4308L67.4234 48.536L67.3495 48.6391L67.2706 48.7408L67.1862 48.841L67.0973 48.9392L67.0028 49.0358L66.9033 49.1305L66.7988 49.2237L66.6893 49.3153L66.5742 49.405L66.4541 49.4926L66.329 49.5788L66.1989 49.6634L66.0637 49.7461L65.9235 49.8272L65.7773 49.9064L65.627 49.984L65.4708 50.0596L65.3105 50.1343L65.1452 50.2054L64.9764 50.2755L64.8035 50.3426L64.6271 50.4077L64.4462 50.4704L64.2613 50.531L64.0729 50.5891L63.8805 50.6447L63.684 50.6983L63.4835 50.7494L63.279 50.7989L63.071 50.8455L62.8589 50.8896L62.6429 50.9322L62.4223 50.9717L62.1982 51.0098L61.9706 51.0449L61.7384 51.0779L61.5028 51.109L61.2631 51.1375L61.0199 51.1636L60.7722 51.1876L60.521 51.2092L60.2657 51.2287L60.0064 51.2457L59.7431 51.2607L59.4763 51.2733L59.2055 51.2833L58.9306 51.2913L58.6518 51.2973L58.3689 51.3003L58.0825 51.3018H56.4605V56.7043H50.5208ZM56.4605 48.9442H57.3107L57.4599 48.9437L57.6072 48.9422L57.7514 48.9397L57.8931 48.9367L58.0322 48.9316L58.1684 48.9261L58.3026 48.9196L58.4342 48.9121L58.5628 48.9036L58.689 48.8941L58.8126 48.8836L58.9337 48.872L59.0523 48.8595L59.1678 48.846L59.2809 48.8315L59.3919 48.8159L59.4999 48.7994L59.605 48.7824L59.708 48.7634L59.8085 48.7443L59.9064 48.7238L60.0014 48.7022L60.0939 48.6797L60.1843 48.6562L60.2717 48.6316L60.3562 48.6066L60.4391 48.58L60.5184 48.5525L60.5958 48.5239L60.6702 48.4949L60.7421 48.4643L60.8119 48.4328L60.8792 48.4002L60.944 48.3662L61.0069 48.3311L61.0677 48.295L61.1264 48.257L61.1827 48.2184L61.2375 48.1788L61.2897 48.1373L61.34 48.0952L61.3882 48.0511L61.4339 48.0065L61.4777 47.9604L61.5194 47.9139L61.5591 47.8653L61.5967 47.8157L61.6319 47.7651L61.6651 47.713L61.6962 47.6599L61.7249 47.6053L61.7515 47.5502L61.7761 47.4931L61.7992 47.435L61.8193 47.3764L61.8374 47.3163L61.854 47.2542L61.8676 47.1916L61.8796 47.1275L61.8892 47.0629L61.8967 46.9962L61.9022 46.9286L61.9053 46.86L61.9063 46.7899L61.9053 46.7253L61.9022 46.6617L61.8967 46.5995L61.8892 46.5379L61.8796 46.4773L61.8676 46.4187L61.854 46.3606L61.8374 46.3035L61.8193 46.2479L61.7992 46.1928L61.7761 46.1397L61.7515 46.0871L61.7249 46.0361L61.6962 45.9855L61.6651 45.9364L61.6319 45.8883L61.5967 45.8412L61.5591 45.7956L61.5194 45.751L61.4777 45.7075L61.4339 45.6649L61.3882 45.6228L61.34 45.5828L61.2897 45.5437L61.2375 45.5056L61.1827 45.4686L61.1264 45.4325L61.0677 45.3979L61.0069 45.3639L60.944 45.3313L60.8792 45.2993L60.8119 45.2692L60.7421 45.2391L60.6702 45.2106L60.5953 45.1831L60.5184 45.1565L60.4391 45.1305L60.3562 45.1059L60.2712 45.0819L60.1843 45.0593L60.0939 45.0373L60.0014 45.0163L59.9064 44.9962L59.8085 44.9772L59.708 44.9587L59.605 44.9416L59.4999 44.9251L59.3919 44.9096L59.2809 44.8955L59.1678 44.882L59.0523 44.8695L58.9337 44.858L58.8126 44.847L58.689 44.8369L58.5628 44.8284L58.4342 44.8204L58.3026 44.8134L58.1684 44.8074L58.0322 44.8024L57.8931 44.7979L57.7514 44.7949L57.6072 44.7929L57.4599 44.7914L57.3107 44.7909H56.4605V48.9442ZM91.9609 56.7043H85.153L77.8923 50.0942V56.7043H71.9918V42.5589H80.4413L80.7533 42.5594L81.0604 42.5624L81.3628 42.5674L81.6598 42.5745L81.9522 42.583L82.2397 42.594L82.522 42.6065L82.7994 42.6215L83.0722 42.6376L83.3396 42.6561L83.6023 42.6766L83.8601 42.6992L84.1134 42.7237L84.3611 42.7498L84.6038 42.7783L84.8424 42.8089L85.0751 42.8409L85.3037 42.875L85.5268 42.9111L85.7454 42.9491L85.9584 42.9887L86.1669 43.0313L86.3704 43.0748L86.5689 43.1209L86.7624 43.1685L86.9508 43.2186L87.1342 43.2702L87.3131 43.3238L87.4869 43.3799L87.6558 43.437L87.8191 43.4966L87.9778 43.5582L88.1326 43.6218L88.2823 43.6874L88.4265 43.7545L88.5662 43.8237L88.7009 43.8953L88.831 43.9689L88.9561 44.044L89.0762 44.1217L89.1913 44.2008L89.3013 44.282L89.4069 44.3651L89.5074 44.4503L89.6028 44.5379L89.6938 44.6266L89.7797 44.7182L89.8606 44.8114L89.9365 44.9066L90.0073 45.0037L90.0736 45.1029L90.1349 45.2036L90.1912 45.3068L90.2425 45.412L90.2892 45.5181L90.3309 45.6273L90.3676 45.7385L90.3997 45.8512L90.4264 45.9659L90.4485 46.0826L90.4656 46.2013L90.4781 46.3221L90.4852 46.4448L90.4877 46.569L90.4862 46.6602L90.4811 46.7498L90.4726 46.839L90.461 46.9271L90.446 47.0148L90.4274 47.1014L90.4058 47.1871L90.3806 47.2722L90.352 47.3559L90.3198 47.4395L90.2847 47.5222L90.2465 47.6038L90.2043 47.684L90.159 47.7646L90.1103 47.8437L90.058 47.9219L90.0028 47.999L89.9445 48.0756L89.8822 48.1518L89.8169 48.2269L89.748 48.301L89.6757 48.3747L89.6003 48.4468L89.5214 48.5189L89.4395 48.5895L89.3536 48.6592L89.2647 48.7288L89.1722 48.7969L89.0767 48.8645L88.9777 48.9311L88.8752 48.9973L88.7697 49.0624L88.6617 49.126L88.5522 49.1881L88.4401 49.2482L88.3266 49.3073L88.211 49.3644L88.0929 49.4195L87.9733 49.4736L87.8517 49.5252L87.7276 49.5758L87.6025 49.6244L87.4744 49.6715L87.3452 49.717L87.2136 49.7601L87.0799 49.8022L86.9443 49.8423L86.8066 49.8808L86.6674 49.9179L86.5262 49.9529L86.3825 49.9865L86.2373 50.0181L86.0901 50.0486L85.9408 50.0772L85.7896 50.1037L85.6368 50.1293L85.4816 50.1523L85.3243 50.1738L85.1655 50.1944L85.0047 50.2124L84.8419 50.2294L84.6771 50.2445L84.5103 50.2575L84.3405 50.2695L91.9609 56.7043Z" fill="black"/>
<path fill-rule="evenodd" clip-rule="evenodd" d="M55.4199 23.3161H58.6357V29.5085H55.4199V23.3161ZM2.98433 59.1166H92.0157V59.8769H2.98433V59.1166ZM5.31629 16.7906H7.60252V17.2003H5.31629V16.7906ZM89.6385 16.7906H87.3522V17.2003H89.6385V16.7906ZM9.2481 16.7906H11.5353V17.2003H9.2481V16.7906ZM85.7057 16.7906H83.4189V17.2003H85.7057V16.7906ZM13.1814 16.7906H15.4677V17.2003H13.1814V16.7906ZM81.7733 16.7906H79.4871V17.2003H81.7733V16.7906ZM17.1142 16.7906H19.4005V17.2003H17.1142V16.7906ZM77.84 16.7906H75.5543V17.2003H77.84V16.7906ZM21.0466 16.7906H23.3785V17.2003H21.0466V16.7906ZM73.9072 16.7906H71.5758V17.2003H73.9072V16.7906ZM24.9794 16.7906H27.2656V17.2003H24.9794V16.7906ZM69.9754 16.7906H67.6892V17.2003H69.9754V16.7906ZM32.4787 13.1892H62.5218V13.645H32.4787V13.1892ZM28.3635 14.192L16.3364 9.9986H16.2912L4.2189 14.192H28.3635ZM27.8148 16.2431V14.6473H4.76759V16.2431H27.8148ZM33.1646 14.6473H28.2715V16.2431H33.1646V14.6473ZM62.1098 12.232L47.5688 7.12605L32.8902 12.232H62.1098ZM61.4314 16.2416V14.6473H33.5766V16.2431L61.4314 16.2416ZM2.98433 16.6994V16.2431H4.35607V14.6473H2.98433V14.192L11.3524 11.2749H2.98433V10.8641H12.5413L16.2912 9.5423H16.3364L20.0863 10.8641H35.6337L47.5231 6.67075H47.5688L59.412 10.8641H74.8679L78.6641 9.49722L82.413 10.8641H91.9704V11.2749H83.6481L91.9704 14.192V14.6473H90.6454V16.2431H92.0157V16.6994H2.98433ZM67.1827 14.6433V16.2391L90.1867 16.2431V14.6473L67.1827 14.6433ZM66.6335 14.188L90.6896 14.192L78.6641 9.9986L66.6335 14.188ZM65.3537 14.188L73.6334 11.2749H60.6008L63.39 12.232V12.6878H31.6099V12.232L34.3991 11.2749H21.3214L29.6433 14.192L65.3537 14.188ZM66.7254 16.2391V14.6433L61.8439 14.6473V16.2416L66.7254 16.2391ZM34.375 16.8351H36.8899V17.2454H34.375V16.8351ZM34.7865 17.4277H36.4789V17.7467H34.7865V17.4277ZM48.613 16.8351H51.1283V17.2454H48.613V16.8351ZM49.025 17.4277H50.7173V17.7467H49.025V17.4277ZM53.4045 16.8351H55.9198V17.2454H53.4045V16.8351ZM53.8165 17.4277H55.5078V17.7467H53.8165V17.4277ZM43.8903 16.8697H46.3589V17.2799H43.8903V16.8697ZM44.3013 17.4622H45.9469V17.7813H44.3013V17.4622ZM39.1304 16.8497H41.599V17.2599H39.1304V16.8497ZM39.5414 17.4422H41.187V17.7608H39.5414V17.4422ZM58.1548 16.8351H60.624V17.2454H58.1548V16.8351ZM58.5663 17.4277H60.2119V17.7467H58.5663V17.4277ZM5.31629 29.0066H7.60252V29.4168H5.31629V29.0066ZM69.9754 29.0066H67.6892V29.4168H69.9754V29.0066ZM24.9794 29.0066H27.2656V29.4168H24.9794V29.0066ZM73.9072 29.0066H71.5758V29.4168H73.9072V29.0066ZM21.0466 29.0066H23.3785V29.4168H21.0466V29.0066ZM77.84 29.0066H75.5543V29.4168H77.84V29.0066ZM17.1142 29.0066H19.4005V29.4168H17.1142V29.0066ZM81.7733 29.0066H79.4871V29.4168H81.7733V29.0066ZM13.1814 29.0066H15.4677V29.4168H13.1814V29.0066ZM85.7057 29.0066H83.4189V29.4168H85.7057V29.0066ZM9.2481 29.0066H11.5353V29.4168H9.2481V29.0066ZM89.6385 29.0066H87.3522V29.4168H89.6385V29.0066ZM43.1376 35.3427V34.1015H47.1111V35.3427L47.8894 35.3422V34.091H51.8624V35.3422H52.6804V34.091H56.654V35.3422H57.4016V34.091H61.3751V35.3422L64.3503 35.3427V36.7106H65.8129V38.1236H66.7294V29.9643H60.1064V32.8794H58.6357V29.9673H55.4199V32.8794H53.8442V29.9673H50.6284V32.8794H49.0983V29.9673H45.8825V32.8794H44.3385V29.9673H41.1332V32.8794H39.6163V29.9673H36.3909V32.8794H34.874V29.9643H28.2715V38.1236H29.2323V36.7106H30.6492V35.3427L33.651 35.3422V34.091H37.6245V35.3422H38.3777V34.091H42.3512V35.3422L43.1376 35.3427ZM34.0379 33.2901H37.2381V33.7013H34.0379V33.2901ZM48.2758 33.2901H51.476V33.7013H48.2758V33.2901ZM53.0668 33.2901H56.2671V33.7013H53.0668V33.2901ZM43.524 33.3247H46.7252V33.7354H43.524V33.3247ZM38.7636 33.3056H41.9648V33.7159H38.7636V33.3056ZM57.7885 33.2906H60.9892V33.7013H57.7885V33.2906ZM34.0625 34.932H37.2125V34.5012H34.0625V34.932ZM38.7892 34.932H41.9392V34.5012H38.7892V34.932ZM43.5491 34.9415H46.6991V34.5118H43.5491V34.9415ZM48.3009 34.932H51.4509V34.5012H48.3009V34.932ZM53.092 34.932H56.2424V34.5012H53.092V34.932ZM57.8131 34.932H60.9636V34.5012H57.8131V34.932ZM50.6284 23.3161H53.8442V29.5085H50.6284V23.3161ZM45.8825 23.3161H49.0983V29.5085H45.8825V23.3161ZM41.1332 23.3161H44.3385V29.5085H41.1332V23.3161ZM36.3909 23.3161H39.6163V29.5085H36.3909V23.3161ZM59.0939 18.7185H59.6487V32.4692H59.0939V18.7185ZM54.3019 18.7185H54.9621V32.4692H54.3019V18.7185ZM49.5566 18.7185H50.1706V32.4692H49.5566V18.7185ZM44.7967 18.7185H45.4248V32.4692H44.7967V18.7185ZM40.0589 18.7185H40.6649V32.4692H40.0589V18.7185ZM35.3317 18.7185H35.9332V32.4692H35.3317V18.7185ZM6.00266 17.7933H6.91665V28.4596H6.00266V17.7933ZM10.8495 28.4596H9.93497V17.7933H10.8495V28.4596ZM14.7813 28.4596H13.8673V17.7933H14.7813V28.4596ZM17.8001 17.7933H18.7141V28.4596H17.8001V17.7933ZM22.6474 28.4596H21.7329V17.7933H22.6474V28.4596ZM26.5792 28.4596H25.6652V17.7933H26.5792V28.4596ZM68.3745 28.4596H69.289V17.7933H68.3745V28.4596ZM72.3068 17.7933V28.4596H73.2223V17.7933H72.3068ZM76.2397 28.4596H77.1547V17.7933H76.2397V28.4596ZM80.173 17.7933V28.4596H81.0875V17.7933H80.173ZM88.0381 28.4596V17.7933H88.9526V28.4596H88.0381ZM84.1053 17.7933V28.4596H85.0193V17.7933H84.1053ZM66.7294 39.5822H28.2715V38.5794H66.7294V39.5822ZM65.3562 38.1236H29.6433V37.1659H65.3562V38.1236ZM34.874 18.2321H36.3909V22.9058H39.6163V18.2321H41.1332V22.9058H44.3385V18.2321H45.8825V22.9058H49.0983V18.2321H50.6284V22.9058H53.8442V18.2321H55.4199V22.9058H58.6357V18.2321H60.1064V22.8988V22.9018H67.9173V17.3375H69.7V22.8988H71.8496V17.3375H73.6334V22.8988H75.7824V17.3375H77.6119V22.8988H79.761V17.3375H81.499V22.8988H83.6481V17.3375H85.4765V22.8988H87.6261V17.3375H89.4104V22.8988H91.9704V23.309H89.4104V28.8698H87.6261V23.309H85.4765V28.8698H83.6481V23.309H81.499V28.8698H79.761V23.309H77.6119V28.8698H75.7824V23.309H73.6334V28.8698H71.8496V23.309H69.7V28.8698H67.9173V23.309H60.1064V23.3161V29.5085H91.9704V29.9643H67.1395V32.3344H91.9704V32.7446H67.1395V35.3427H91.9704V35.7529H67.1395V38.1236H91.9704V38.5794H67.1395V39.5822H91.9704V40.311H2.98433V39.5822H27.8148V38.5794H2.98433V38.1236H27.8148V35.7529H2.98433V35.3427H27.8148V32.7446H2.98433V32.3344H27.8148V29.9643H2.98433V29.5085H34.874V23.309H27.0375V28.8698H25.2537V23.309H23.1047V28.8698H21.3214V23.309H19.1713V28.8698H17.3881V23.309H15.1933V28.8698H13.4553V23.309H11.3067V28.8698H9.47723V23.309H7.32917V28.8698H5.54441V23.309H2.98433V22.8988H5.54441V17.3375H7.32917V22.8988H9.47723V17.3375H11.3067V22.8988H13.4553V17.3375H15.1933V22.8988H17.3881V17.3375H19.1713V22.8988H21.3214V17.3375H23.1047V22.8988H25.2537V17.3375H27.0375V22.8988H34.874V18.2321ZM63.9397 36.7106H31.0612V35.7529H63.9397V36.7106Z" fill="#005C92"/>
</svg>
