<svg width="135" height="101" viewBox="0 0 135 101" fill="none" xmlns="http://www.w3.org/2000/svg">
<path fill-rule="evenodd" clip-rule="evenodd" d="M110.689 69.1181H111.952L112.267 69.1174L112.575 69.116L112.876 69.1131L113.17 69.1096L113.458 69.1039L113.739 69.0982L114.014 69.0903L114.281 69.0818L114.541 69.0725L114.795 69.0618L115.043 69.0504L115.283 69.0376L115.517 69.0234L115.744 69.0084L115.964 68.992L116.178 68.9749L116.384 68.9564L116.584 68.9364L116.778 68.9158L116.964 68.8937L117.144 68.8709L117.317 68.8467L117.482 68.8217L117.642 68.7961L117.794 68.7683L117.941 68.7398L118.08 68.7099L118.213 68.6799L118.338 68.6479L118.457 68.6151L118.569 68.5809L118.675 68.546L118.775 68.5096L118.873 68.4712L118.966 68.4313L119.058 68.3899L119.145 68.3472L119.23 68.3023L119.312 68.256L119.39 68.2075L119.465 68.1584L119.537 68.1071L119.605 68.0543L119.672 67.9995L119.734 67.9432L119.793 67.8848L119.849 67.8256L119.902 67.7643L119.951 67.7016L119.998 67.6368L120.041 67.5705L120.081 67.5028L120.118 67.4337L120.151 67.3625L120.182 67.2898L120.209 67.215L120.234 67.1387L120.255 67.0611L120.272 66.982L120.287 66.9008L120.298 66.8181L120.306 66.7333L120.311 66.6478L120.312 66.5602L120.311 66.4683L120.306 66.3778L120.297 66.2894L120.285 66.2025L120.269 66.117L120.251 66.0336L120.229 65.9517L120.202 65.8712L120.174 65.7921L120.141 65.7158L120.104 65.6403L120.066 65.5669L120.023 65.495L119.976 65.4251L119.927 65.3567L119.873 65.2898L119.817 65.2242L119.757 65.1608L119.693 65.0988L119.627 65.0389L119.556 64.9805L119.482 64.9235L119.405 64.8686L119.324 64.8152L119.24 64.7632L119.152 64.7133L119.062 64.6649L118.968 64.6178L118.87 64.573L118.768 64.5295L118.663 64.4882L118.556 64.4483L118.443 64.4091L118.324 64.3727L118.199 64.3357L118.069 64.3015L117.931 64.2673L117.788 64.2352L117.639 64.2046L117.485 64.1747L117.322 64.1454L117.155 64.1184L116.983 64.092L116.803 64.0671L116.618 64.0436L116.426 64.0208L116.229 64.0001L116.026 63.9801L115.816 63.9609L115.601 63.9431L115.379 63.9267L115.152 63.9117L114.918 63.8975L114.678 63.8847L114.433 63.8733L114.181 63.8633L113.924 63.854L113.66 63.8462L113.39 63.8391L113.115 63.8341L112.833 63.8298L112.546 63.8262L112.252 63.8248L111.952 63.8241H110.689V69.1181ZM127.672 86.8143L128.349 86.0469H129.15L128.109 86.8143H127.672ZM129.802 91.3495L129.21 90.2857H127.145L126.54 91.3495H125.649L128.174 87.0566L130.695 91.3495H129.802ZM127.458 89.7271H128.91L128.377 88.7859L128.281 88.5778L128.181 88.317L128.09 88.57L127.993 88.7859L127.458 89.7271ZM120.5 91.3495V87.0566L123.811 89.5811L124.086 89.8091L124.378 90.0841V87.2205H125.162V91.5106L121.782 88.9412L121.521 88.721C121.435 88.6434 121.355 88.5636 121.28 88.4788V91.3495H120.5ZM119.114 91.3495L118.522 90.2857H116.458L115.852 91.3495H114.961L117.486 87.0566L120.007 91.3495H119.114ZM116.77 89.7271H118.223L117.689 88.7859L117.593 88.5778L117.494 88.317L117.402 88.57L117.305 88.7859L116.77 89.7271ZM112.379 89.5027V91.3495H111.586V87.2205H112.767C113.114 87.2205 113.384 87.2383 113.574 87.2746C113.765 87.3102 113.928 87.3687 114.064 87.4513C114.226 87.5518 114.35 87.6808 114.438 87.8382C114.526 87.9964 114.57 88.1688 114.57 88.3569C114.57 88.6876 114.469 88.9462 114.267 89.1343C114.065 89.321 113.767 89.4336 113.372 89.4713L115.168 91.3495H114.21L112.476 89.5027H112.379ZM112.433 88.9804H112.586C113.035 88.9804 113.332 88.9391 113.479 88.8557C113.627 88.7731 113.701 88.627 113.701 88.4161C113.701 88.1888 113.622 88.0292 113.464 87.9358C113.306 87.8425 113.013 87.7962 112.586 87.7962H112.433V88.9804ZM110.2 91.3495L109.608 90.2857H107.544L106.938 91.3495H106.047L108.572 87.0566L111.093 91.3495H110.2ZM107.856 89.7271H109.309L108.775 88.7859C108.741 88.7176 108.709 88.6482 108.679 88.5778C108.646 88.4995 108.613 88.4132 108.579 88.317C108.551 88.4075 108.521 88.4923 108.488 88.57C108.456 88.6484 108.423 88.7189 108.391 88.7859L107.856 89.7271ZM104.067 89.4963V91.3495H103.273V87.2205H104.555C104.935 87.2205 105.215 87.2361 105.394 87.2696C105.573 87.3024 105.73 87.3573 105.862 87.4328C106.023 87.5247 106.156 87.6581 106.248 87.819C106.34 87.9822 106.386 88.161 106.386 88.3569C106.386 88.5529 106.34 88.7324 106.248 88.8985C106.156 89.0645 106.026 89.1942 105.862 89.2875C105.73 89.3623 105.573 89.4165 105.394 89.4485C105.215 89.4799 104.935 89.4963 104.555 89.4963H104.388H104.067ZM104.121 88.9462H104.338C104.808 88.9462 105.122 88.9063 105.279 88.8251C105.435 88.7446 105.514 88.6021 105.514 88.3968C105.514 88.1767 105.429 88.0213 105.262 87.9323C105.095 87.8411 104.787 87.7962 104.338 87.7962H104.121V88.9462ZM100.101 89.2932C100.101 89.5868 100.031 89.8639 99.8921 90.1247C99.7529 90.3862 99.5508 90.6199 99.2845 90.8251C99.016 91.0296 98.7133 91.1871 98.3763 91.2954C98.0399 91.4044 97.6858 91.4593 97.3152 91.4593C96.9396 91.4593 96.5826 91.4044 96.242 91.294C95.9007 91.1835 95.6001 91.0282 95.3388 90.8251C95.0724 90.6199 94.8711 90.3876 94.734 90.1283C94.5962 89.8689 94.5269 89.591 94.5269 89.2932C94.5269 88.9975 94.5962 88.7189 94.734 88.4588C94.8711 88.1966 95.0724 87.9622 95.3388 87.7556C95.6051 87.5511 95.9064 87.395 96.2434 87.2882C96.5797 87.1813 96.9375 87.1271 97.3152 87.1271C97.6908 87.1271 98.0457 87.1813 98.382 87.2882C98.7183 87.395 99.0182 87.5511 99.2845 87.7556C99.5508 87.9643 99.7529 88.2002 99.8921 88.4624C100.031 88.7253 100.101 89.0018 100.101 89.2932ZM99.2167 89.2932C99.2168 89.0862 99.1671 88.8821 99.0717 88.6982C98.976 88.5101 98.8382 88.3434 98.6576 88.1966C98.4826 88.0513 98.2784 87.9401 98.0471 87.8625C97.815 87.7848 97.5723 87.7449 97.3152 87.7449C97.0589 87.7449 96.8147 87.7841 96.584 87.8603C96.3527 87.938 96.1463 88.0491 95.9664 88.1966C95.7865 88.3413 95.6479 88.5073 95.553 88.6947C95.458 88.8835 95.4102 89.083 95.4102 89.2932C95.4102 89.5027 95.458 89.7 95.553 89.8867C95.6479 90.072 95.7865 90.2387 95.9664 90.3848C96.1463 90.5323 96.3513 90.6441 96.5826 90.7211C96.8125 90.798 97.056 90.8365 97.3152 90.8365C97.5694 90.8365 97.8114 90.798 98.0399 90.7211C98.2684 90.6441 98.4755 90.5323 98.6576 90.3848C98.8382 90.2387 98.976 90.072 99.0717 89.8846C99.1672 89.702 99.2169 89.4991 99.2167 89.2932ZM89.3559 91.3495V87.2205H90.4983C91.2423 87.2205 91.765 87.2504 92.0678 87.3095C92.3705 87.3687 92.6354 87.4677 92.8639 87.6067C93.1652 87.7891 93.3937 88.0235 93.5494 88.3092C93.705 88.5956 93.7829 88.9213 93.7829 89.2875C93.7829 89.6544 93.705 89.9794 93.5494 90.2622C93.3937 90.5458 93.1652 90.7788 92.8639 90.9634C92.6354 91.1023 92.3762 91.2013 92.0863 91.2612C91.7943 91.3196 91.3416 91.3495 90.7268 91.3495H90.4983H89.3559ZM90.2027 90.7432H90.9153C91.3066 90.7432 91.6008 90.7225 91.7964 90.6819C91.9921 90.6399 92.1627 90.5693 92.3084 90.4724C92.5055 90.3385 92.6526 90.1732 92.7504 89.9751C92.8489 89.7763 92.8996 89.5454 92.8996 89.2818C92.8996 89.0189 92.8489 88.788 92.7504 88.5892C92.6526 88.3911 92.5055 88.2258 92.3084 88.0919C92.1613 87.9943 91.9835 87.9244 91.78 87.8831C91.5744 87.8411 91.2516 87.8211 90.8154 87.8211H90.509H90.2027V90.7432ZM83.725 91.3495V87.2205H84.5718V90.7489H86.4669V91.3495H83.725ZM82.339 91.3495L81.7471 90.2857H79.6828L79.0773 91.3495H78.1862L80.7118 87.0566L83.2323 91.3495H82.339ZM79.9956 89.7271H81.4479L80.9146 88.7859C80.8839 88.7253 80.851 88.6562 80.8182 88.5778C80.7853 88.4995 80.7518 88.4132 80.7182 88.317C80.6896 88.4075 80.6604 88.4923 80.6275 88.57C80.5961 88.6484 80.5633 88.7189 80.5304 88.7859L79.9956 89.7271ZM75.605 89.5027V91.3495H74.811V87.2205H75.9927C76.339 87.2205 76.6089 87.2383 76.7996 87.2746C76.9902 87.3102 77.153 87.3687 77.2894 87.4513C77.4508 87.5518 77.575 87.6808 77.6643 87.8382C77.7514 87.9964 77.7949 88.1688 77.7949 88.3569C77.7949 88.6876 77.6943 88.9462 77.4929 89.1343C77.2908 89.321 76.9917 89.4336 76.5975 89.4713L78.3933 91.3495H77.4351L75.7007 89.5027H75.605ZM75.6586 88.9804H75.8114C76.2598 88.9804 76.5575 88.9391 76.7046 88.8557C76.8517 88.7731 76.926 88.627 76.926 88.4161C76.926 88.1888 76.8467 88.0292 76.6889 87.9358C76.5311 87.8425 76.2383 87.7962 75.8114 87.7962H75.6586V88.9804ZM70.9295 91.3495V87.2205H73.8392V87.7905H71.7764V88.8251H73.8392V89.4143H71.7764V90.7489H73.8392V91.3495H70.9295ZM65.5307 91.3495V87.2205H66.6731C67.4172 87.2205 67.9406 87.2504 68.2426 87.3095C68.5461 87.3687 68.811 87.4677 69.0395 87.6067C69.3401 87.7891 69.5693 88.0235 69.7249 88.3092C69.8799 88.5956 69.9577 88.9213 69.9577 89.2875C69.9577 89.6544 69.8799 89.9794 69.7249 90.2622C69.5693 90.5458 69.3401 90.7788 69.0395 90.9634C68.811 91.1023 68.5518 91.2013 68.2612 91.2612C67.9691 91.3196 67.5171 91.3495 66.9016 91.3495H66.6731H65.5307ZM66.3775 90.7432H67.0901C67.4814 90.7432 67.7763 90.7225 67.972 90.6819C68.1676 90.6399 68.3376 90.5693 68.4832 90.4724C68.6803 90.3385 68.8274 90.1732 68.9259 89.9751C69.0245 89.7763 69.0744 89.5454 69.0744 89.2818C69.0744 89.0189 69.0245 88.788 68.9259 88.5892C68.8274 88.3911 68.6803 88.2258 68.4832 88.0919C68.3361 87.9943 68.1591 87.9244 67.9548 87.8831C67.7492 87.8411 67.4272 87.8211 66.9909 87.8211H66.6846H66.3775V90.7432ZM61.6492 91.3495V87.2205H64.5596V87.7905H62.4968V88.8251H64.5596V89.4143H62.4968V90.7489H64.5596V91.3495H61.6492ZM57.8213 91.3495V87.2205H60.7317V87.7905H58.6688V88.8194H60.7317V89.4086H58.6688V91.3495H57.8213ZM51.7384 91.3495V87.2205H54.6481V87.7905H52.586V88.8251H54.6481V89.4143H52.586V90.7489H54.6481V91.3495H51.7384ZM46.3403 91.3495V87.2205H47.4828C48.2268 87.2205 48.7495 87.2504 49.0522 87.3095C49.355 87.3687 49.6199 87.4677 49.8477 87.6067C50.1497 87.7891 50.3782 88.0235 50.5338 88.3092C50.6895 88.5956 50.7673 88.9213 50.7673 89.2875C50.7673 89.6544 50.6895 89.9794 50.5338 90.2622C50.3782 90.5458 50.1497 90.7788 49.8477 90.9634C49.6199 91.1023 49.3607 91.2013 49.0701 91.2612C48.778 91.3196 48.326 91.3495 47.7113 91.3495H47.4828H46.3403ZM47.1872 90.7432H47.8998C48.2911 90.7432 48.5852 90.7225 48.7809 90.6819C48.9765 90.6399 49.1465 90.5693 49.2921 90.4724C49.4892 90.3385 49.6363 90.1732 49.7348 89.9751C49.8334 89.7763 49.8834 89.5454 49.8834 89.2818C49.8834 89.0189 49.8334 88.788 49.7348 88.5892C49.6363 88.3911 49.4892 88.2258 49.2921 88.0919C49.1458 87.9943 48.968 87.9244 48.7638 87.8831C48.5581 87.8411 48.2361 87.8211 47.7998 87.8211H47.4935H47.1872V90.7432ZM44.9544 91.3495L44.3625 90.2857H42.2975L41.6927 91.3495H40.8016L43.3264 87.0566L45.8476 91.3495H44.9544ZM42.6102 89.7271H44.0633L43.5292 88.7859C43.4951 88.7176 43.4632 88.6482 43.4335 88.5778C43.3972 88.4921 43.3639 88.4051 43.3335 88.317C43.3043 88.4075 43.275 88.4923 43.2421 88.57C43.2107 88.6484 43.1779 88.7189 43.145 88.7859L42.6102 89.7271ZM36.2396 91.3495V87.2205H37.3821C38.1261 87.2205 38.6488 87.2504 38.9515 87.3095C39.2543 87.3687 39.5192 87.4677 39.7477 87.6067C40.049 87.7891 40.2782 88.0235 40.4331 88.3092C40.5888 88.5956 40.6666 88.9213 40.6666 89.2875C40.6666 89.6544 40.5888 89.9794 40.4331 90.2622C40.2782 90.5458 40.049 90.7788 39.7477 90.9634C39.5192 91.1023 39.26 91.2013 38.9701 91.2612C38.678 91.3196 38.2253 91.3495 37.6105 91.3495H37.3821H36.2396ZM37.0864 90.7432H37.799C38.1903 90.7432 38.4845 90.7225 38.6802 90.6819C38.8758 90.6399 39.0465 90.5693 39.1921 90.4724C39.3892 90.3385 39.5363 90.1732 39.6341 89.9751C39.7334 89.7763 39.7826 89.5454 39.7826 89.2818C39.7826 89.0189 39.7334 88.788 39.6341 88.5892C39.5363 88.3911 39.3892 88.2258 39.1921 88.0919C39.045 87.9943 38.8672 87.9244 38.663 87.8831C38.4581 87.8411 38.1354 87.8211 37.6998 87.8211H37.3928H37.0864V90.7432ZM34.1739 87.2205H35.0215V91.3495H34.1739V87.2205ZM29.8576 90.5223L30.533 90.2751C30.598 90.4589 30.7158 90.5993 30.8858 90.6962C31.0571 90.7931 31.2764 90.8408 31.5413 90.8408C31.7926 90.8408 31.9932 90.7852 32.1418 90.6741C32.2896 90.5636 32.3645 90.4161 32.3645 90.2294C32.3645 89.9872 32.1096 89.7706 31.602 89.5811L31.4377 89.5191C30.8636 89.2975 30.4809 89.0965 30.2903 88.917C30.0996 88.7381 30.0032 88.5173 30.0032 88.2579C30.0032 87.9216 30.1482 87.6487 30.4359 87.4399C30.7237 87.2312 31.1021 87.1271 31.5705 87.1271C31.954 87.1271 32.2767 87.1856 32.5352 87.3031C32.7944 87.4207 32.9729 87.5903 33.0729 87.8097L32.4102 88.0805C32.306 87.9501 32.1917 87.8553 32.0661 87.7962C31.9418 87.7356 31.799 87.7057 31.6369 87.7057C31.4099 87.7057 31.2285 87.7527 31.095 87.8461C30.96 87.9401 30.8929 88.0669 30.8929 88.2244C30.8929 88.4731 31.1871 88.7039 31.7769 88.9177C31.8118 88.9317 31.847 88.9448 31.8826 88.9569C32.3981 89.1457 32.7515 89.3295 32.945 89.5091C33.1371 89.6886 33.2335 89.9131 33.2335 90.1817C33.2335 90.5722 33.0779 90.8835 32.7665 91.1137C32.4552 91.3438 32.0361 91.4593 31.5056 91.4593C31.0621 91.4593 30.6987 91.378 30.4145 91.217C30.131 91.0545 29.9447 90.8237 29.8576 90.5223ZM26.8658 89.5027V91.3495H26.0718V87.2205H27.2535C27.5998 87.2205 27.8697 87.2383 28.0611 87.2746C28.2517 87.3102 28.4145 87.3687 28.5509 87.4513C28.7123 87.5518 28.8365 87.6808 28.925 87.8382C29.0129 87.9964 29.0564 88.1688 29.0564 88.3569C29.0564 88.6876 28.9557 88.9462 28.7537 89.1343C28.5516 89.321 28.2531 89.4336 27.859 89.4713L29.6541 91.3495H28.6965L26.9622 89.5027H26.8658ZM26.9193 88.9804H27.0728C27.5213 88.9804 27.819 88.9391 27.9661 88.8557C28.1132 88.7731 28.1874 88.627 28.1874 88.4161C28.1874 88.1888 28.1082 88.0292 27.9504 87.9358C27.7919 87.8425 27.4991 87.7962 27.0728 87.7962H26.9193V88.9804ZM22.1903 91.3495V87.2205H25.1007V87.7905H23.0378V88.8251H25.1007V89.4143H23.0378V90.7489H25.1007V91.3495H22.1903ZM19.3377 91.5106L17.0121 87.2205H17.8918L19.06 89.4207C19.1285 89.549 19.1856 89.6658 19.2306 89.7749C19.2756 89.8825 19.312 89.9858 19.3377 90.0841C19.3707 89.9746 19.4101 89.867 19.4555 89.762C19.5027 89.6502 19.5591 89.5369 19.6226 89.4207L20.7865 87.2205H21.6626L19.3377 91.5106ZM15.6162 87.2205H16.4637V91.3495H15.6162V87.2205ZM9.74395 91.3495V87.0566L13.0549 89.5811C13.1485 89.6547 13.2402 89.7307 13.3298 89.8091C13.4303 89.8974 13.5277 89.9891 13.6219 90.0841V87.2205H14.4059V91.5106L11.0264 88.9412C10.9364 88.8714 10.8486 88.7987 10.765 88.721C10.68 88.6434 10.5994 88.5636 10.5244 88.4788V91.3495H9.74395ZM4.29587 87.2205H5.13201V89.7271C5.13201 90.1005 5.23983 90.3791 5.45761 90.5672C5.67467 90.7539 5.99956 90.8472 6.43155 90.8472C6.8614 90.8472 7.18485 90.7539 7.40263 90.5672C7.62041 90.3791 7.72823 90.1005 7.72823 89.7271V87.2205H8.57579V89.7905C8.57579 90.3484 8.398 90.766 8.0417 91.0432C7.68611 91.321 7.14844 91.4593 6.43298 91.4593C5.71537 91.4593 5.17913 91.321 4.82569 91.0439C4.47153 90.7681 4.29587 90.3499 4.29587 89.7905V87.2205ZM4.30444 60.5415H10.5958V72.7584L10.5979 72.928L10.6051 73.0933L10.6172 73.2572L10.6336 73.4182L10.6551 73.5764L10.6815 73.7324L10.7122 73.8849L10.7486 74.036L10.7886 74.1827L10.8343 74.3281L10.8843 74.4706L10.9392 74.6103L10.9992 74.7471L11.0635 74.8817L11.1327 75.0135L11.207 75.1425L11.2863 75.2686L11.3698 75.3926L11.4583 75.5144L11.5519 75.632L11.6497 75.7481L11.7532 75.8614L11.8603 75.9726L11.9732 76.0809L12.0903 76.1856L12.2124 76.289L12.3402 76.3894L12.4716 76.4863L12.6079 76.5811L12.75 76.6737L12.8957 76.7635L13.0471 76.8504L13.2027 76.9345L13.3634 77.0157L13.529 77.0948L13.6983 77.1703L13.8732 77.2444L14.0531 77.3143L14.2367 77.382L14.4259 77.4482L14.6194 77.5102L14.8179 77.5708L15.0207 77.6278L15.2284 77.6826L15.4405 77.7347L15.6583 77.7838L15.8804 77.8309L16.1067 77.875L16.3381 77.9164L16.5737 77.9548L16.8143 77.9905L17.0599 78.024L17.3106 78.0546L17.5648 78.0824L17.8247 78.108L18.0889 78.1308L18.3581 78.1508L18.6315 78.1679L18.9107 78.1828L19.1935 78.1942L19.4812 78.2035L19.774 78.2106L20.071 78.2149L20.3731 78.2163L20.6744 78.2149L20.9707 78.2106L21.2627 78.2035L21.5498 78.1942L21.8325 78.1828L22.1096 78.1679L22.3823 78.1508L22.6508 78.1308L22.9143 78.108L23.1735 78.0824L23.427 78.0546L23.6762 78.024L23.9218 77.9905L24.1617 77.9548L24.3966 77.9164L24.6273 77.875L24.8536 77.8309L25.0743 77.7838L25.2913 77.7347L25.5034 77.6826L25.7105 77.6278L25.9132 77.5708L26.1103 77.5102L26.3038 77.4482L26.493 77.382L26.6765 77.3143L26.8558 77.2444L27.03 77.1703L27.1999 77.0948L27.3649 77.0157L27.5255 76.9345L27.6812 76.8504L27.8326 76.7635L27.9789 76.6737L28.1203 76.5811L28.2567 76.4863L28.3888 76.3894L28.5159 76.289L28.6373 76.1856L28.7551 76.0809L28.8679 75.9726L28.9757 75.8614L29.0786 75.7481L29.1764 75.632L29.2699 75.5144L29.3585 75.3926L29.442 75.2686L29.5213 75.1425L29.5955 75.0135L29.6648 74.8817L29.729 74.7471L29.789 74.6103L29.844 74.4706L29.894 74.3281L29.9397 74.1827L29.9804 74.036L30.0161 73.8849L30.0468 73.7324L30.0732 73.5764L30.0946 73.4182L30.1118 73.2572L30.1232 73.0933L30.1303 72.928L30.1332 72.7584V60.5415H36.5059V73.0634L36.5024 73.317L36.4902 73.5657L36.4709 73.8108L36.4431 74.0516L36.4081 74.2889L36.3653 74.5219L36.3146 74.7506L36.2553 74.9758L36.1889 75.1967L36.1146 75.414L36.0325 75.6263L35.9426 75.8351L35.8447 76.041L35.7383 76.2412L35.6248 76.4386L35.5034 76.631L35.3742 76.8205L35.2371 77.005L35.0922 77.186L34.9393 77.3627L34.7787 77.5352L34.6102 77.7047L34.4331 77.8693L34.2489 78.0304L34.0568 78.1871L33.8569 78.3396L33.6491 78.4885L33.4335 78.6332L33.2092 78.7735L32.9779 78.9103L32.7387 79.0436L32.4916 79.1718L32.236 79.2965L31.9732 79.4169L31.7019 79.5338L31.4227 79.6471L31.1357 79.7561L30.8408 79.8608L30.5373 79.9613L30.226 80.0589L29.9076 80.1515L29.5805 80.2406L29.2456 80.3254L28.9029 80.4066L28.5523 80.4843L28.1932 80.5577L27.8269 80.6268L27.452 80.6923L27.0693 80.7536L26.6794 80.8106L26.281 80.8641L25.8747 80.9139L25.4605 80.9588L25.0378 81.0002L24.608 81.0386L24.1703 81.0721L23.724 81.102L23.2706 81.1277L22.8086 81.1491L22.3395 81.1669L21.8618 81.1811L21.377 81.1911L20.8836 81.1968L20.3823 81.1989L19.8804 81.1968L19.3863 81.1911L18.9007 81.1811L18.4223 81.1669L17.9525 81.1491L17.4912 81.1277L17.0371 81.102L16.5908 81.0721L16.1531 81.0386L15.7226 81.0009L15.3013 80.9595L14.8871 80.9139L14.4809 80.8641L14.0831 80.8106L13.6933 80.7536L13.3113 80.6931L12.9378 80.6275L12.5715 80.5584L12.2138 80.485L11.8639 80.408L11.5219 80.3268L11.1884 80.2427L10.8628 80.1537L10.5451 80.061L10.2352 79.9634L9.93317 79.8637L9.6397 79.7589L9.35409 79.6499L9.07633 79.5373L8.80643 79.4212L8.54509 79.3008L8.29161 79.1768L8.04669 79.0486L7.80821 78.916L7.57829 78.7799L7.35622 78.6396L7.14201 78.4949L6.93566 78.3467L6.73644 78.1935L6.54579 78.0375L6.363 77.8765L6.18806 77.7119L6.02027 77.5437L5.86032 77.3706L5.70895 77.1939L5.56471 77.0129L5.42833 76.8283L5.29981 76.6388L5.17913 76.4464L5.06703 76.2491L4.96207 76.0474L4.86424 75.8429L4.77499 75.6334L4.69288 75.4197L4.61933 75.2024L4.55293 74.9815L4.49509 74.7556L4.44439 74.5262L4.40155 74.2925L4.36656 74.0545L4.33943 73.8129L4.32015 73.5671L4.30801 73.317L4.30444 73.0634V60.5415ZM43.0929 80.6638V60.5415H64.9866V63.3175H49.4656V68.3344H64.9866V71.2051H49.4656V80.6638H43.0929ZM71.7928 80.6638V60.5415H81.4415L81.9192 60.5429L82.389 60.5472L82.8517 60.5543L83.3066 60.565L83.7528 60.5778L84.1913 60.5942L84.6225 60.6135L85.0452 60.6356L85.4608 60.6605L85.8678 60.6883L86.2677 60.7196L86.659 60.7531L87.0431 60.7895L87.4187 60.8294L87.7871 60.8728L88.147 60.9184L88.4997 60.9669L88.8439 61.0182L89.1802 61.073L89.5094 61.1308L89.83 61.1913L90.1427 61.2547L90.4476 61.321L90.7454 61.3901L91.0338 61.4628L91.3159 61.5383L91.5886 61.6167L91.8543 61.6972L92.1113 61.7813L92.3612 61.8689L92.6033 61.9587L92.8368 62.0521L93.0638 62.1475L93.2838 62.2473L93.4958 62.3499L93.7015 62.4561L93.8993 62.5651L94.0899 62.6776L94.2741 62.7924L94.4505 62.9114L94.6197 63.0332L94.7818 63.1579L94.9368 63.2869L95.0838 63.418L95.2245 63.5533L95.3573 63.6916L95.4837 63.8319L95.6022 63.9766L95.7136 64.1241L95.8179 64.2751L95.915 64.429L96.0049 64.5865L96.0871 64.7468L96.1627 64.9107L96.2313 65.0774L96.2927 65.2477L96.3463 65.4209L96.3927 65.5976L96.4326 65.7771L96.4648 65.9602L96.4898 66.1469L96.5076 66.3364L96.5183 66.5288L96.5226 66.7248L96.5183 66.9058L96.5076 67.0853L96.4898 67.262L96.4641 67.4366L96.4312 67.6083L96.392 67.7779L96.3448 67.9446L96.2906 68.1092L96.2291 68.2709L96.1599 68.4306L96.0842 68.5873L96.0007 68.7426L95.9107 68.8944L95.8122 69.044L95.7072 69.1908L95.5951 69.3355L95.4751 69.478L95.3488 69.6176L95.2145 69.7551L95.0731 69.8898L94.9246 70.0223L94.769 70.1527L94.6054 70.2803L94.4348 70.4049L94.257 70.5275L94.0721 70.6479L93.88 70.7655L93.6808 70.8809L93.473 70.9935L93.2595 71.1039L93.0374 71.2115L92.8096 71.3177L92.5747 71.4189L92.3348 71.5186L92.0892 71.6141L91.8386 71.7067L91.5815 71.7958L91.3187 71.882L91.051 71.9647L90.7775 72.0437L90.4983 72.12L90.2134 72.1927L89.9228 72.2632L89.6272 72.3295L89.3259 72.3922L89.0188 72.4527L88.7054 72.509L88.3869 72.5632L88.0635 72.6131L87.7336 72.6601L87.3987 72.7043L87.0581 72.7449L86.7125 72.7819L86.3605 72.8161L86.0035 72.8468L85.6408 72.8746L85.2723 72.8988L84.8982 72.9201L84.519 72.938L84.1341 72.9522L83.7436 72.9636L83.3473 72.9722L82.9453 72.9764L82.5383 72.9786H80.2334V80.6638H71.7928ZM80.2334 69.6247H81.4415L81.6536 69.624L81.8628 69.6219L82.0677 69.6183L82.2691 69.614L82.4669 69.6069L82.6604 69.5991L82.851 69.5898L83.0381 69.5791L83.2209 69.567L83.4001 69.5535L83.5758 69.5385L83.7478 69.5221L83.9164 69.5043L84.0806 69.4851L84.2412 69.4644L84.399 69.4423L84.5526 69.4188L84.7018 69.3946L84.8482 69.3675L84.991 69.3404L85.1302 69.3112L85.2652 69.2806L85.3965 69.2485L85.5251 69.215L85.6493 69.1801L85.7693 69.1445L85.8871 69.1067L85.9999 69.0675L86.1099 69.0269L86.2155 68.9856L86.3177 68.9421L86.4169 68.8973L86.5126 68.8509L86.6047 68.8025L86.694 68.7526L86.7803 68.7013L86.8639 68.6472L86.9439 68.5923L87.0217 68.536L87.0959 68.4769L87.1673 68.417L87.2359 68.3543L87.3009 68.2909L87.363 68.2253L87.4223 68.1591L87.4787 68.09L87.5322 68.0194L87.5822 67.9475L87.6293 67.8734L87.6736 67.7978L87.7143 67.7202L87.7521 67.6418L87.7871 67.5606L87.82 67.4779L87.8485 67.3945L87.8742 67.309L87.8978 67.2207L87.9171 67.1316L87.9342 67.0404L87.9478 66.9485L87.9585 66.8537L87.9664 66.7575L87.9706 66.6599L87.9721 66.5602L87.9706 66.4683L87.9664 66.3778L87.9585 66.2894L87.9478 66.2018L87.9342 66.1156L87.9171 66.0322L87.8978 65.9495L87.8742 65.8683L87.8485 65.7892L87.82 65.7109L87.7871 65.6353L87.7521 65.5605L87.7143 65.4878L87.6736 65.4159L87.6293 65.346L87.5822 65.2776L87.5322 65.2107L87.4787 65.1458L87.4223 65.0824L87.363 65.0204L87.3009 64.9599L87.2359 64.9L87.1673 64.843L87.0959 64.7874L87.0217 64.7333L86.9439 64.6805L86.8639 64.6292L86.7803 64.5801L86.694 64.5316L86.6047 64.4853L86.5126 64.4397L86.4169 64.397L86.3177 64.3542L86.2155 64.3136L86.1092 64.2744L85.9999 64.2366L85.8871 64.1996L85.7693 64.1647L85.6486 64.1305L85.5251 64.0984L85.3965 64.0671L85.2652 64.0371L85.1302 64.0086L84.991 63.9816L84.8482 63.9552L84.7018 63.931L84.5526 63.9075L84.399 63.8854L84.2412 63.8654L84.0806 63.8462L83.9164 63.8284L83.7478 63.812L83.5758 63.7963L83.4001 63.7821L83.2209 63.7699L83.0381 63.7585L82.851 63.7486L82.6604 63.74L82.4669 63.7329L82.2691 63.7265L82.0677 63.7222L81.8628 63.7194L81.6536 63.7172L81.4415 63.7165H80.2334V69.6247ZM130.681 80.6638H121.007L110.689 71.2607V80.6638H102.304V60.5415H114.311L114.755 60.5422L115.191 60.5465L115.621 60.5536L116.043 60.5636L116.458 60.5757L116.867 60.5914L117.268 60.6092L117.662 60.6306L118.05 60.6534L118.43 60.6797L118.803 60.7089L119.17 60.741L119.53 60.7759L119.882 60.813L120.226 60.8536L120.566 60.8971L120.896 60.9427L121.221 60.9911L121.538 61.0424L121.849 61.0966L122.151 61.1528L122.448 61.2134L122.737 61.2754L123.019 61.341L123.294 61.4086L123.562 61.4799L123.822 61.5533L124.076 61.6295L124.324 61.7093L124.563 61.7906L124.796 61.8753L125.021 61.963L125.241 62.0535L125.454 62.1468L125.659 62.2423L125.857 62.3406L126.049 62.4425L126.234 62.5473L126.411 62.6541L126.582 62.7646L126.746 62.8772L126.902 62.9926L127.052 63.1109L127.195 63.232L127.33 63.3567L127.46 63.4828L127.582 63.6132L127.697 63.7457L127.804 63.8811L127.905 64.0193L127.999 64.1604L128.086 64.3036L128.166 64.4504L128.239 64.6L128.306 64.7511L128.365 64.9064L128.417 65.0646L128.463 65.2249L128.501 65.3881L128.532 65.5541L128.556 65.723L128.574 65.8947L128.584 66.0693L128.588 66.246L128.586 66.3756L128.578 66.5032L128.566 66.63L128.55 66.7554L128.528 66.8801L128.502 67.0034L128.471 67.1252L128.436 67.2463L128.395 67.3653L128.349 67.4843L128.299 67.6019L128.245 67.718L128.185 67.832L128.121 67.9467L128.051 68.0593L127.977 68.1705L127.899 68.2802L127.816 68.3892L127.727 68.4975L127.635 68.6044L127.537 68.7099L127.434 68.8146L127.327 68.9172L127.215 69.0198L127.098 69.1203L126.976 69.2193L126.85 69.3184L126.718 69.4153L126.583 69.5114L126.442 69.6062L126.296 69.7003L126.146 69.7929L125.993 69.8834L125.837 69.9717L125.678 70.0572L125.517 70.1413L125.352 70.2225L125.185 70.3009L125.015 70.3779L124.842 70.4513L124.666 70.5232L124.488 70.5923L124.306 70.6593L124.122 70.7242L123.935 70.7854L123.745 70.8453L123.552 70.9023L123.357 70.9572L123.159 71.0099L122.958 71.0598L122.754 71.1075L122.548 71.1524L122.339 71.1958L122.126 71.2365L121.912 71.2742L121.694 71.3106L121.474 71.3433L121.25 71.374L121.025 71.4032L120.796 71.4288L120.565 71.4531L120.331 71.4744L120.094 71.493L119.852 71.5101L130.681 80.6638Z" fill="white"/>
<path fill-rule="evenodd" clip-rule="evenodd" d="M78.7546 33.1678H83.3244V41.9767H78.7546V33.1678ZM4.24089 84.0953H130.759V85.1769H4.24089V84.0953ZM7.55472 23.8851H10.8036V24.4679H7.55472V23.8851ZM127.381 23.8851H124.132V24.4679H127.381V23.8851ZM13.142 23.8851H16.3923V24.4679H13.142V23.8851ZM121.792 23.8851H118.543V24.4679H121.792V23.8851ZM18.7315 23.8851H21.9803V24.4679H18.7315V23.8851ZM116.204 23.8851H112.955V24.4679H116.204V23.8851ZM24.3202 23.8851H27.5691V24.4679H24.3202V23.8851ZM110.615 23.8851H107.367V24.4679H110.615V23.8851ZM29.9083 23.8851H33.2221V24.4679H29.9083V23.8851ZM105.026 23.8851H101.713V24.4679H105.026V23.8851ZM35.497 23.8851H38.7459V24.4679H35.497V23.8851ZM99.4387 23.8851H96.1899V24.4679H99.4387V23.8851ZM46.154 18.762H88.8467V19.4104H46.154V18.762ZM40.306 20.1885L23.2149 14.2233H23.1506L5.99527 20.1885H40.306ZM39.5263 23.1063V20.8362H6.775V23.1063H39.5263ZM47.1286 20.8362H40.1754V23.1063H47.1286V20.8362ZM88.2612 17.4004L67.5978 10.1369L46.7387 17.4004H88.2612ZM87.2973 23.1041V20.8362H47.7141V23.1063L87.2973 23.1041ZM4.24089 23.7554V23.1063H6.19021V20.8362H4.24089V20.1885L16.1324 16.0388H4.24089V15.4545H17.8218L23.1506 13.5741H23.2149L28.5437 15.4545H50.6374L67.5328 9.48926H67.5978L84.4276 15.4545H106.391L111.786 13.51L117.113 15.4545H130.695V16.0388H118.868L130.695 20.1885V20.8362H128.812V23.1063H130.759V23.7554H4.24089ZM95.4701 20.8305V23.1006L128.16 23.1063V20.8362L95.4701 20.8305ZM94.6897 20.1828L128.875 20.1885L111.786 14.2233L94.6897 20.1828ZM92.871 20.1828L104.637 16.0388H86.117L90.0806 17.4004V18.0488H44.9194V17.4004L48.883 16.0388H30.2988L42.1247 20.1885L92.871 20.1828ZM94.8203 23.1006V20.8305L87.8835 20.8362V23.1041L94.8203 23.1006ZM48.8487 23.9485H52.4225V24.532H48.8487V23.9485ZM49.4335 24.7914H51.8384V25.2453H49.4335V24.7914ZM69.0816 23.9485H72.656V24.532H69.0816V23.9485ZM69.6671 24.7914H72.072V25.2453H69.6671V24.7914ZM75.8906 23.9485H79.4651V24.532H75.8906V23.9485ZM76.4761 24.7914H78.8795V25.2453H76.4761V24.7914ZM62.3704 23.9976H65.8784V24.5812H62.3704V23.9976ZM62.9545 24.8405H65.2929V25.2944H62.9545V24.8405ZM55.6063 23.9691H59.1144V24.5527H55.6063V23.9691ZM56.1904 24.812H58.5289V25.2652H56.1904V24.812ZM82.6411 23.9485H86.1498V24.532H82.6411V23.9485ZM83.2259 24.7914H85.5643V25.2453H83.2259V24.7914ZM7.55472 41.2628H10.8036V41.8463H7.55472V41.2628ZM99.4387 41.2628H96.1899V41.8463H99.4387V41.2628ZM35.497 41.2628H38.7459V41.8463H35.497V41.2628ZM105.026 41.2628H101.713V41.8463H105.026V41.2628ZM29.9083 41.2628H33.2221V41.8463H29.9083V41.2628ZM110.615 41.2628H107.367V41.8463H110.615V41.2628ZM24.3202 41.2628H27.5691V41.8463H24.3202V41.2628ZM116.204 41.2628H112.955V41.8463H116.204V41.2628ZM18.7315 41.2628H21.9803V41.8463H18.7315V41.2628ZM121.792 41.2628H118.543V41.8463H121.792V41.2628ZM13.142 41.2628H16.3923V41.8463H13.142V41.2628ZM127.381 41.2628H124.132V41.8463H127.381V41.2628ZM61.3008 50.2762V48.5105H66.9473V50.2762L68.0534 50.2754V48.4956H73.6992V50.2754H74.8617V48.4956H80.5083V50.2754H81.5707V48.4956H87.2173V50.2754L91.4451 50.2762V52.2221H93.5237V54.2321H94.8261V42.6251H85.4144V46.772H83.3244V42.6294H78.7546V46.772H76.5154V42.6294H71.9456V46.772H69.7713V42.6294H65.2015V46.772H63.0073V42.6294H58.4525V46.772H56.2968V42.6294H51.7134V46.772H49.5578V42.6251H40.1754V54.2321H41.5406V52.2221H43.5542V50.2762L47.8198 50.2754V48.4956H53.4664V50.2754H54.5367V48.4956H60.1833V50.2754L61.3008 50.2762ZM48.3696 47.3562H52.9173V47.9412H48.3696V47.3562ZM68.6025 47.3562H73.1501V47.9412H68.6025V47.3562ZM75.4108 47.3562H79.9584V47.9412H75.4108V47.3562ZM61.8498 47.4054H66.399V47.9897H61.8498V47.4054ZM55.0851 47.3783H59.6342V47.9619H55.0851V47.3783ZM82.1205 47.357H86.6689V47.9412H82.1205V47.357ZM48.4046 49.6919H52.8809V49.0791H48.4046V49.6919ZM55.1215 49.6919H59.5978V49.0791H55.1215V49.6919ZM61.8855 49.7054H66.3618V49.0941H61.8855V49.7054ZM68.6382 49.6919H73.1144V49.0791H68.6382V49.6919ZM75.4465 49.6919H79.9235V49.0791H75.4465V49.6919ZM82.1555 49.6919H86.6325V49.0791H82.1555V49.6919ZM71.9456 33.1678H76.5154V41.9767H71.9456V33.1678ZM65.2015 33.1678H69.7713V41.9767H65.2015V33.1678ZM58.4525 33.1678H63.0073V41.9767H58.4525V33.1678ZM51.7134 33.1678H56.2968V41.9767H51.7134V33.1678ZM83.9756 26.6276H84.7639V46.1884H83.9756V26.6276ZM77.1659 26.6276H78.1041V46.1884H77.1659V26.6276ZM70.4225 26.6276H71.2951V46.1884H70.4225V26.6276ZM63.6585 26.6276H64.551V46.1884H63.6585V26.6276ZM56.9259 26.6276H57.787V46.1884H56.9259V26.6276ZM50.2082 26.6276H51.0629V46.1884H50.2082V26.6276ZM8.53009 25.3115H9.82892V40.4847H8.53009V25.3115ZM15.4177 40.4847H14.1181V25.3115H15.4177V40.4847ZM21.005 40.4847H19.7061V25.3115H21.005V40.4847ZM25.2949 25.3115H26.5937V40.4847H25.2949V25.3115ZM32.1832 40.4847H30.8836V25.3115H32.1832V40.4847ZM37.7705 40.4847H36.4717V25.3115H37.7705V40.4847ZM97.1638 40.4847H98.4634V25.3115H97.1638V40.4847ZM102.752 25.3115V40.4847H104.053V25.3115H102.752ZM108.341 40.4847H109.641V25.3115H108.341V40.4847ZM113.93 25.3115V40.4847H115.23V25.3115H113.93ZM125.107 40.4847V25.3115H126.406V40.4847H125.107ZM119.518 25.3115V40.4847H120.817V25.3115H119.518ZM94.8261 56.3069H40.1754V54.8805H94.8261V56.3069ZM92.8746 54.2321H42.1247V52.8697H92.8746V54.2321ZM49.5578 25.9357H51.7134V32.5842H56.2968V25.9357H58.4525V32.5842H63.0073V25.9357H65.2015V32.5842H69.7713V25.9357H71.9456V32.5842H76.5154V25.9357H78.7546V32.5842H83.3244V25.9357H85.4144V32.5743V32.5785H96.514V24.6631H99.0474V32.5743H102.102V24.6631H104.637V32.5743H107.691V24.6631H110.291V32.5743H113.345V24.6631H115.814V32.5743H118.868V24.6631H121.467V32.5743H124.521V24.6631H127.057V32.5743H130.695V33.1578H127.057V41.0682H124.521V33.1578H121.467V41.0682H118.868V33.1578H115.814V41.0682H113.345V33.1578H110.291V41.0682H107.691V33.1578H104.637V41.0682H102.102V33.1578H99.0474V41.0682H96.514V33.1578H85.4144V33.1678V41.9767H130.695V42.6251H95.4087V45.9967H130.695V46.5803H95.4087V50.2762H130.695V50.8597H95.4087V54.2321H130.695V54.8805H95.4087V56.3069H130.695V57.3437H4.24089V56.3069H39.5263V54.8805H4.24089V54.2321H39.5263V50.8597H4.24089V50.2762H39.5263V46.5803H4.24089V45.9967H39.5263V42.6251H4.24089V41.9767H49.5578V33.1578H38.4217V41.0682H35.8869V33.1578H32.8329V41.0682H30.2988V33.1578H27.2435V41.0682H24.7094V33.1578H21.5905V41.0682H19.1206V33.1578H16.0674V41.0682H13.4676V33.1578H10.4151V41.0682H7.8789V33.1578H4.24089V32.5743H7.8789V24.6631H10.4151V32.5743H13.4676V24.6631H16.0674V32.5743H19.1206V24.6631H21.5905V32.5743H24.7094V24.6631H27.2435V32.5743H30.2988V24.6631H32.8329V32.5743H35.8869V24.6631H38.4217V32.5743H49.5578V25.9357ZM90.8618 52.2221H44.1397V50.8597H90.8618V52.2221Z" fill="white"/>
</svg>
